<?xml version="1.0" standalone="no"?>
<!DOCTYPE svg PUBLIC "-//W3C//DTD SVG 20010904//EN"
 "http://www.w3.org/TR/2001/REC-SVG-20010904/DTD/svg10.dtd">
<svg version="1.0" xmlns="http://www.w3.org/2000/svg"
 width="500.000000pt" height="500.000000pt" viewBox="0 0 500.000000 500.000000"
 preserveAspectRatio="xMidYMid meet">

<g transform="translate(0.000000,500.000000) scale(0.100000,-0.100000)"
fill="#000000" stroke="none">
<path d="M2260 4839 c-52 -4 -120 -12 -150 -17 -30 -6 -93 -18 -140 -27 -47
-8 -96 -21 -110 -27 -14 -6 -36 -13 -50 -15 -13 -3 -27 -7 -30 -11 -3 -4 -16
-9 -30 -10 -14 -2 -29 -8 -34 -13 -6 -5 -17 -9 -25 -9 -25 0 -241 -90 -241
-100 0 -3 -9 -6 -19 -7 -11 -1 -37 -13 -59 -27 -22 -13 -55 -32 -73 -40 -39
-18 -161 -95 -169 -106 -3 -4 -18 -14 -35 -23 -16 -8 -41 -27 -54 -41 -14 -14
-31 -26 -38 -26 -8 0 -16 -7 -20 -16 -3 -9 -14 -19 -24 -22 -39 -15 -261 -230
-344 -333 -22 -27 -55 -66 -72 -87 -18 -20 -33 -40 -33 -44 0 -4 -11 -19 -25
-34 -14 -15 -25 -35 -25 -45 0 -11 -7 -19 -15 -19 -8 0 -24 -19 -35 -42 -12
-24 -39 -74 -60 -113 -22 -38 -56 -105 -76 -147 -20 -43 -42 -78 -47 -78 -7 0
-7 -4 0 -11 9 -9 9 -15 0 -24 -7 -7 -24 -45 -37 -86 -13 -41 -27 -76 -30 -79
-3 -3 -7 -15 -7 -27 -1 -11 -13 -50 -27 -85 -14 -36 -26 -75 -26 -88 0 -28
-28 -188 -37 -210 -3 -8 -7 -31 -8 -50 -8 -159 -19 -288 -27 -302 -6 -12 -5
-18 3 -18 7 0 9 -16 4 -51 -4 -28 -3 -49 1 -46 5 3 8 -28 6 -68 -1 -42 2 -76
8 -80 5 -3 10 -16 9 -28 0 -21 -1 -21 -9 -2 -7 14 -8 8 -3 -20 3 -22 10 -43
16 -46 5 -4 6 -12 3 -18 -4 -6 -3 -11 1 -11 5 0 8 -13 7 -30 -2 -30 18 -116
56 -236 12 -38 23 -76 25 -84 7 -32 35 -96 109 -250 321 -672 942 -1167 1676
-1339 217 -50 544 -81 679 -63 49 7 112 12 141 12 81 0 309 48 484 102 309 95
662 292 886 494 83 76 211 205 247 249 17 22 46 56 63 75 109 120 343 511 324
542 -4 7 -3 8 4 4 7 -4 12 -1 12 9 0 9 6 26 14 38 17 26 77 202 101 297 9 36
20 79 25 95 5 17 14 75 20 130 6 55 13 107 16 116 2 9 5 60 6 113 0 64 4 96
12 96 8 0 8 3 0 8 -6 4 -11 48 -13 102 -1 52 -4 109 -6 125 -3 17 -7 53 -10
80 -7 65 -21 143 -39 229 -9 38 -13 73 -9 79 4 6 1 7 -7 2 -10 -6 -12 -1 -8
19 3 14 1 26 -3 26 -5 0 -9 9 -9 19 0 11 -4 23 -10 26 -5 3 -10 17 -10 31 0
14 -7 41 -17 62 -9 20 -15 41 -14 46 1 5 -2 12 -6 15 -11 8 -33 49 -33 61 0 6
-10 32 -21 58 -12 26 -32 70 -45 99 -13 28 -24 56 -24 61 0 6 -7 12 -15 16 -8
3 -14 9 -13 13 1 4 -5 22 -14 39 -16 30 -112 177 -129 199 -69 84 -119 157
-114 165 4 6 3 10 -2 9 -21 -4 -32 3 -38 22 -7 22 -189 203 -295 292 -98 83
-276 204 -385 262 -38 20 -74 41 -80 46 -5 5 -15 9 -23 9 -8 0 -26 9 -41 19
-14 10 -55 28 -90 40 -35 11 -69 25 -75 30 -9 7 -61 24 -111 36 -5 1 -23 7
-38 13 -16 7 -34 12 -41 12 -6 0 -16 4 -21 9 -14 12 -247 61 -293 61 -20 0
-53 5 -72 11 -42 13 -408 19 -540 8z m1348 -1647 l2 -242 -207 2 -208 3 -3 73
-3 72 -894 0 -895 0 0 135 0 135 43 0 c23 0 231 7 462 15 231 8 611 19 845 26
234 6 513 14 620 18 107 5 204 8 215 7 19 -1 20 -9 23 -244z m2 -442 l0 -140
-920 0 c-1011 0 -962 3 -995 -60 -31 -60 -10 -137 45 -165 25 -13 146 -15 950
-15 l920 0 0 -130 0 -130 -1105 0 -1105 0 0 390 0 390 1105 0 1105 0 0 -140z
m-1753 -202 c29 -27 30 -76 2 -112 -44 -57 -139 -18 -139 58 0 66 87 101 137
54z m1753 -747 c0 -132 -3 -242 -7 -244 -5 -3 -255 3 -558 13 -302 10 -737 23
-965 29 -228 6 -475 14 -547 18 l-133 6 0 134 0 133 740 0 740 0 0 75 0 75
365 0 365 0 0 -239z"/>
<path d="M31 2594 c0 -11 3 -14 6 -6 3 7 2 16 -1 19 -3 4 -6 -2 -5 -13z"/>
</g>
</svg>
