<?xml version="1.0" encoding="UTF-8"?>
<svg version="1.1" xmlns="http://www.w3.org/2000/svg" width="650" height="257">
<path d="M0 0 C-0.33 1.98 -0.66 3.96 -1 6 C-1.99 6 -2.98 6 -4 6 C-4 5.34 -4 4.68 -4 4 C-5.98 4.33 -7.96 4.66 -10 5 C-9.67 3.68 -9.34 2.36 -9 1 C-5.846632 0.29925156 -3.27275026 0 0 0 Z " fill="#020202" transform="translate(360,90)"/>
<path d="M0 0 C1.9375 0.75 1.9375 0.75 4 2 C4.75 4.125 4.75 4.125 5 6 C2.69 6.33 0.38 6.66 -2 7 C-2.33 5.35 -2.66 3.7 -3 2 C-2.01 1.34 -1.02 0.68 0 0 Z " fill="#030202" transform="translate(502,100)"/>
<path d="M0 0 C0.99 0.33 1.98 0.66 3 1 C3 1.99 3 2.98 3 4 C1.35 4.66 -0.3 5.32 -2 6 C-1.125 1.125 -1.125 1.125 0 0 Z " fill="#050303" transform="translate(45,40)"/>
<path d="M0 0 C1.32 0 2.64 0 4 0 C4 1.32 4 2.64 4 4 C2.35 4 0.7 4 -1 4 C-0.67 2.68 -0.34 1.36 0 0 Z " fill="#020202" transform="translate(609,138)"/>
<path d="M0 0 C0.66 0 1.32 0 2 0 C1.67 1.32 1.34 2.64 1 4 C0.01 4 -0.98 4 -2 4 C-1.34 2.68 -0.68 1.36 0 0 Z " fill="#010101" transform="translate(399,138)"/>
<path d="M0 0 C-0.66 1.32 -1.32 2.64 -2 4 C-2.66 4 -3.32 4 -4 4 C-4 3.01 -4 2.02 -4 1 C-2 0 -2 0 0 0 Z " fill="#080707" transform="translate(499,105)"/>
<path d="M0 0 C1.32 0 2.64 0 4 0 C4 0.66 4 1.32 4 2 C2.68 2.33 1.36 2.66 0 3 C0 2.01 0 1.02 0 0 Z " fill="#000000" transform="translate(174,92)"/>
<path d="M0 0 C0.99 0 1.98 0 3 0 C3 0.99 3 1.98 3 3 C2.01 3 1.02 3 0 3 C0 2.01 0 1.02 0 0 Z " fill="#010101" transform="translate(536,107)"/>
<path d="M0 0 C0.66 0 1.32 0 2 0 C2 0.99 2 1.98 2 3 C1.01 3 0.02 3 -1 3 C-0.67 2.01 -0.34 1.02 0 0 Z " fill="#020202" transform="translate(401,134)"/>
<path d="M0 0 C0.66 0 1.32 0 2 0 C2 1.32 2 2.64 2 4 C1.34 4 0.68 4 0 4 C0 2.68 0 1.36 0 0 Z " fill="#010101" transform="translate(301,86)"/>
<path d="M0 0 C0.99 0.33 1.98 0.66 3 1 C3 1.66 3 2.32 3 3 C2.01 3 1.02 3 0 3 C0 2.01 0 1.02 0 0 Z " fill="#000000" transform="translate(79,33)"/>
<path d="M0 0 C0.66 0 1.32 0 2 0 C1.67 0.99 1.34 1.98 1 3 C0.34 3 -0.32 3 -1 3 C-0.67 2.01 -0.34 1.02 0 0 Z " fill="#020202" transform="translate(428,172)"/>
<path d="M0 0 C0.66 0 1.32 0 2 0 C1.67 0.99 1.34 1.98 1 3 C0.34 3 -0.32 3 -1 3 C-0.67 2.01 -0.34 1.02 0 0 Z " fill="#020202" transform="translate(299,107)"/>
<path d="M0 0 C0.66 0 1.32 0 2 0 C1.67 0.99 1.34 1.98 1 3 C0.34 3 -0.32 3 -1 3 C-0.67 2.01 -0.34 1.02 0 0 Z " fill="#010101" transform="translate(359,96)"/>
<path d="M0 0 C0.66 0 1.32 0 2 0 C1.67 0.99 1.34 1.98 1 3 C0.34 3 -0.32 3 -1 3 C-0.67 2.01 -0.34 1.02 0 0 Z " fill="#020202" transform="translate(308,63)"/>
<path d="M0 0 C0.99 0 1.98 0 3 0 C3 0.66 3 1.32 3 2 C2.01 2 1.02 2 0 2 C0 1.34 0 0.68 0 0 Z " fill="#010101" transform="translate(423,236)"/>
<path d="M0 0 C0.66 0 1.32 0 2 0 C2 0.99 2 1.98 2 3 C1.34 3 0.68 3 0 3 C0 2.01 0 1.02 0 0 Z " fill="#010101" transform="translate(558,118)"/>
<path d="M0 0 C0.66 0 1.32 0 2 0 C2 0.99 2 1.98 2 3 C1.34 3 0.68 3 0 3 C0 2.01 0 1.02 0 0 Z " fill="#020202" transform="translate(373,100)"/>
<path d="M0 0 C0.66 0 1.32 0 2 0 C2 0.99 2 1.98 2 3 C1.34 3 0.68 3 0 3 C0 2.01 0 1.02 0 0 Z " fill="#010101" transform="translate(188,94)"/>
<path d="M0 0 C0.99 0 1.98 0 3 0 C3 0.66 3 1.32 3 2 C2.01 2 1.02 2 0 2 C0 1.34 0 0.68 0 0 Z " fill="#010101" transform="translate(295,92)"/>
<path d="M0 0 C0.66 0 1.32 0 2 0 C2 0.99 2 1.98 2 3 C1.34 3 0.68 3 0 3 C0 2.01 0 1.02 0 0 Z " fill="#010101" transform="translate(96,74)"/>
<path d="M0 0 C0.66 0 1.32 0 2 0 C2 0.99 2 1.98 2 3 C1.34 3 0.68 3 0 3 C0 2.01 0 1.02 0 0 Z " fill="#010101" transform="translate(358,64)"/>
<path d="M0 0 C0.99 0 1.98 0 3 0 C3 0.66 3 1.32 3 2 C2.01 2 1.02 2 0 2 C0 1.34 0 0.68 0 0 Z " fill="#010101" transform="translate(365,63)"/>
<path d="M0 0 C0.99 0 1.98 0 3 0 C3 0.66 3 1.32 3 2 C2.01 2 1.02 2 0 2 C0 1.34 0 0.68 0 0 Z " fill="#000000" transform="translate(98,37)"/>
<path d="M0 0 C0.66 0 1.32 0 2 0 C2 0.99 2 1.98 2 3 C1.34 3 0.68 3 0 3 C0 2.01 0 1.02 0 0 Z " fill="#010101" transform="translate(81,29)"/>
<path d="M0 0 C0.66 0 1.32 0 2 0 C2 0.66 2 1.32 2 2 C1.34 2 0.68 2 0 2 C0 1.34 0 0.68 0 0 Z " fill="#020202" transform="translate(396,133)"/>
<path d="M0 0 C0.66 0 1.32 0 2 0 C2 0.66 2 1.32 2 2 C1.34 2 0.68 2 0 2 C0 1.34 0 0.68 0 0 Z " fill="#010101" transform="translate(477,128)"/>
<path d="M0 0 C0.66 0 1.32 0 2 0 C2 0.66 2 1.32 2 2 C1.34 2 0.68 2 0 2 C0 1.34 0 0.68 0 0 Z " fill="#000000" transform="translate(386,125)"/>
<path d="M0 0 C0.66 0 1.32 0 2 0 C2 0.66 2 1.32 2 2 C1.34 2 0.68 2 0 2 C0 1.34 0 0.68 0 0 Z " fill="#010101" transform="translate(377,103)"/>
<path d="M0 0 C0.66 0 1.32 0 2 0 C2 0.66 2 1.32 2 2 C1.34 2 0.68 2 0 2 C0 1.34 0 0.68 0 0 Z " fill="#000000" transform="translate(227,91)"/>
</svg>
