<?xml version="1.0" encoding="UTF-8"?>
<svg version="1.1" xmlns="http://www.w3.org/2000/svg" width="533" height="468">
<path d="M0 0 C2.79164447 1.15646158 3.21412862 2.57250999 4.46484375 5.27734375 C6.51042969 9.29885172 7.70180622 10.39799791 12.02734375 11.83984375 C13.08984375 14.21484375 13.08984375 14.21484375 13.02734375 16.83984375 C11.21484375 18.83984375 11.21484375 18.83984375 9.02734375 20.83984375 C7.77298188 23.47207337 7.77298188 23.47207337 7.02734375 25.83984375 C3.82158388 25.49636948 3.05217616 24.86905835 0.90234375 22.33984375 C0.28359375 21.51484375 -0.33515625 20.68984375 -0.97265625 19.83984375 C-1.63265625 19.50984375 -2.29265625 19.17984375 -2.97265625 18.83984375 C-2.96105469 17.98519531 -2.94945312 17.13054687 -2.9375 16.25 C-2.92847656 15.14527344 -2.91945313 14.04054688 -2.91015625 12.90234375 C-2.89855469 11.80019531 -2.88695312 10.69804687 -2.875 9.5625 C-2.66003054 6.92536741 -2.66003054 6.92536741 -3.97265625 5.83984375 C-4.01329457 4.1736726 -4.01537725 2.5059628 -3.97265625 0.83984375 C-1.97265625 -0.16015625 -1.97265625 -0.16015625 0 0 Z M1.02734375 8.83984375 C0.08463373 12.09624034 0.08463373 12.09624034 0.02734375 15.83984375 C2.31933778 18.80035249 2.31933778 18.80035249 5.02734375 20.83984375 C5.21296875 19.38578125 5.21296875 19.38578125 5.40234375 17.90234375 C5.60859375 16.89171875 5.81484375 15.88109375 6.02734375 14.83984375 C6.68734375 14.50984375 7.34734375 14.17984375 8.02734375 13.83984375 C6.57328125 13.43765625 6.57328125 13.43765625 5.08984375 13.02734375 C4.07921875 12.63546875 3.06859375 12.24359375 2.02734375 11.83984375 C1.69734375 10.84984375 1.36734375 9.85984375 1.02734375 8.83984375 Z " fill="#808080" transform="translate(398.97265625,378.16015625)"/>
<path d="M0 0 C0.96070434 2.88211302 1.10581883 4.69850044 1.0625 7.6875 C1.05347656 8.49574219 1.04445313 9.30398438 1.03515625 10.13671875 C1.02355469 10.75160156 1.01195312 11.36648438 1 12 C1.66 12 2.32 12 3 12 C3.33 13.65 3.66 15.3 4 17 C2.35 16.67 0.7 16.34 -1 16 C-1 15.01 -1 14.02 -1 13 C-6.31692273 11.32926736 -11.47647817 9.82852827 -17 9 C-17.66 8.67 -18.32 8.34 -19 8 C-19 5.36 -19 2.72 -19 0 C-12.11868574 -2.16079916 -6.93081189 -1.88101367 0 0 Z M-15 3 C-15 4.32 -15 5.64 -15 7 C-10.71 7.33 -6.42 7.66 -2 8 C-2.33 6.68 -2.66 5.36 -3 4 C-4.43503555 3.63597631 -5.87316506 3.28413409 -7.3125 2.9375 C-8.51326172 2.64166016 -8.51326172 2.64166016 -9.73828125 2.33984375 C-12.15957179 1.80114446 -12.15957179 1.80114446 -15 3 Z " fill="#5D5D5D" transform="translate(512,382)"/>
<path d="M0 0 C1.66611905 -0.042721 3.33382885 -0.04063832 5 0 C5.33 0.33 5.66 0.66 6 1 C7.0725 0.95875 8.145 0.9175 9.25 0.875 C13.21456699 1.00715223 14.92112129 1.57421677 18 4 C18 4.66 18 5.32 18 6 C18.66 6 19.32 6 20 6 C20.33 9.63 20.66 13.26 21 17 C21.66 17 22.32 17 23 17 C23.76815988 12.64709404 24.07251092 9.2900437 23 5 C23 4.01 23 3.02 23 2 C23.99 2 24.98 2 26 2 C27.125 7.75 27.125 7.75 26 10 C26.66 10 27.32 10 28 10 C27.67 13.96 27.34 17.92 27 22 C25.68 22 24.36 22 23 22 C23 21.34 23 20.68 23 20 C22.34 20 21.68 20 21 20 C21 19.34 21 18.68 21 18 C19.68 17.34 18.36 16.68 17 16 C17 13.03 17 10.06 17 7 C15.53626953 6.81824219 15.53626953 6.81824219 14.04296875 6.6328125 C12.77066406 6.46523438 11.49835938 6.29765625 10.1875 6.125 C8.29064453 5.88136719 8.29064453 5.88136719 6.35546875 5.6328125 C3 5 3 5 0 3 C0 2.01 0 1.02 0 0 Z " fill="#646464" transform="translate(300,256)"/>
<path d="M0 0 C-0.43173627 5.09448798 -0.75400216 8.84512277 -4 13 C-4.66 13 -5.32 13 -6 13 C-6 14.32 -6 15.64 -6 17 C-11.74647406 16.60369144 -15.55794413 16.00868456 -20 12 C-21 8.875 -21 8.875 -21 6 C-19 4 -19 4 -16.1796875 3.8046875 C-15.08914063 3.82789063 -13.99859375 3.85109375 -12.875 3.875 C-11.77929688 3.89304687 -10.68359375 3.91109375 -9.5546875 3.9296875 C-8.71164062 3.95289063 -7.86859375 3.97609375 -7 4 C-6.67 3.01 -6.34 2.02 -6 1 C-4 0 -4 0 0 0 Z M-16 7 C-16 7.99 -16 8.98 -16 10 C-15.01 10.33 -14.02 10.66 -13 11 C-13 11.66 -13 12.32 -13 13 C-11.02 12.67 -9.04 12.34 -7 12 C-7 10.35 -7 8.7 -7 7 C-9.97 7 -12.94 7 -16 7 Z " fill="#363636" transform="translate(379,323)"/>
<path d="M0 0 C5.65394631 -0.34615998 9.03006806 0.56574762 14 3 C14 3.66 14 4.32 14 5 C14.66 5 15.32 5 16 5 C17.67578125 6.609375 17.67578125 6.609375 19 9 C18.85546875 12.015625 18.85546875 12.015625 18.1875 15.25 C17.97480469 16.32765625 17.76210938 17.4053125 17.54296875 18.515625 C17.36378906 19.33546875 17.18460937 20.1553125 17 21 C15.68 21 14.36 21 13 21 C13.165 19.9275 13.33 18.855 13.5 17.75 C14.08810915 13.96971248 14.08810915 13.96971248 14 10 C14 9.34 14 8.68 14 8 C10.77484237 6.26337666 7.48670834 5.1094072 4 4 C4.34786708 5.97536745 4.34786708 5.97536745 5 8 C5.66 8.33 6.32 8.66 7 9 C7 9.99 7 10.98 7 12 C8.32 12.66 9.64 13.32 11 14 C11 14.66 11 15.32 11 16 C9.35 15.67 7.7 15.34 6 15 C6 14.01 6 13.02 6 12 C5.38125 11.9175 4.7625 11.835 4.125 11.75 C2 11 2 11 0.75 9.375 C-0.25295915 6.1989627 -0.12721966 3.30771122 0 0 Z " fill="#6E6E6E" transform="translate(456,266)"/>
<path d="M0 0 C0.99 0 1.98 0 3 0 C3.28875 1.11375 3.5775 2.2275 3.875 3.375 C4.69241329 7.00291092 4.69241329 7.00291092 7 9 C7.763125 8.67 8.52625 8.34 9.3125 8 C12 7 12 7 15 7 C14.8125 8.8125 14.8125 8.8125 14 11 C12.35178756 12.03013277 10.68496298 13.03114628 9 14 C8.67 14.99 8.34 15.98 8 17 C-0.35294118 16.0361991 -0.35294118 16.0361991 -3 14 C-4 11.9375 -4 11.9375 -4 9 C-2.87786167 5.88932818 -1.49592375 2.94690559 0 0 Z " fill="#3C3C3C" transform="translate(490,336)"/>
<path d="M0 0 C0.99 0 1.98 0 3 0 C4.32 0 5.64 0 7 0 C6.42415568 2.38564077 5.77772405 4.66682784 5 7 C3.66666667 7.33333333 2.33333333 7.66666667 1 8 C0.02391783 10.92824652 -0.08226668 12.95613276 0 16 C-5.841744 16.35050464 -9.8531808 16.16727335 -15 13 C-15 10.69 -15 8.38 -15 6 C-14.01 6 -13.02 6 -12 6 C-11.9690625 6.8971875 -11.9690625 6.8971875 -11.9375 7.8125 C-11.09543384 10.43314602 -11.09543384 10.43314602 -7.4375 11.75 C-6.303125 12.1625 -5.16875 12.575 -4 13 C-3.34 9.04 -2.68 5.08 -2 1 C-2.66 1 -3.32 1 -4 1 C-4 1.66 -4 2.32 -4 3 C-4.99 3 -5.98 3 -7 3 C-7 2.01 -7 1.02 -7 0 C-4.31581667 -1.34209166 -2.88064523 -0.63233676 0 0 Z " fill="#484848" transform="translate(291,156)"/>
<path d="M0 0 C5.35978411 0.42037522 8.00158692 1.44585504 12 5 C12.99 5.33 13.98 5.66 15 6 C17 9 17 9 17 13 C11.06 13.495 11.06 13.495 5 14 C4.34 12.35 3.68 10.7 3 9 C2.34 9 1.68 9 1 9 C1.020625 8.071875 1.04125 7.14375 1.0625 6.1875 C1.15769604 2.97713989 1.15769604 2.97713989 0 0 Z M4 4 C4 4.99 4 5.98 4 7 C4.66 7 5.32 7 6 7 C5.67 6.01 5.34 5.02 5 4 C4.67 4 4.34 4 4 4 Z M6 7 C6.33 8.32 6.66 9.64 7 11 C7.99 10.34 8.98 9.68 10 9 C8.68 8.34 7.36 7.68 6 7 Z " fill="#2E2E2E" transform="translate(377,217)"/>
<path d="M0 0 C2.53052166 0.9201897 3.60869291 1.45451513 5.0625 3.75 C4.75 7.4375 4.75 7.4375 4.0625 10.75 C0.4325 11.08 -3.1975 11.41 -6.9375 11.75 C-6.6075 10.43 -6.2775 9.11 -5.9375 7.75 C-1.1875 6.625 -1.1875 6.625 1.0625 7.75 C0.7325 7.09 0.4025 6.43 0.0625 5.75 C-2.65196979 5.43758545 -5.27659361 5.23663408 -8 5.125 C-8.75861328 5.08632812 -9.51722656 5.04765625 -10.29882812 5.0078125 C-12.17797195 4.91326438 -14.05770336 4.83053244 -15.9375 4.75 C-15.6075 3.43 -15.2775 2.11 -14.9375 0.75 C-14.16664063 0.76160156 -13.39578125 0.77320313 -12.6015625 0.78515625 C-11.09722656 0.79869141 -11.09722656 0.79869141 -9.5625 0.8125 C-8.06589844 0.82990234 -8.06589844 0.82990234 -6.5390625 0.84765625 C-3.96514993 0.75103791 -2.48219265 -0.32028292 0 0 Z " fill="#5F5F5F" transform="translate(427.9375,238.25)"/>
<path d="M0 0 C1.8125 0.1875 1.8125 0.1875 4 1 C6.14197494 3.90696599 7 5.35521088 7 9 C4.13275314 8.42655063 3.1385485 8.1385485 1 6 C0.01 6 -0.98 6 -2 6 C-2 6.66 -2 7.32 -2 8 C-2.99 7.855625 -3.98 7.71125 -5 7.5625 C-11.97613352 6.45201583 -11.97613352 6.45201583 -19 6 C-19 6.66 -19 7.32 -19 8 C-24.75 7.125 -24.75 7.125 -27 6 C-27 5.34 -27 4.68 -27 4 C-24.64628886 3.8031001 -22.2925305 3.61729026 -19.9375 3.4375 C-18.62652344 3.33308594 -17.31554687 3.22867188 -15.96484375 3.12109375 C-12.15316915 3.00467807 -8.75587064 3.41084382 -5 4 C-2.18762459 3.64025105 -2.18762459 3.64025105 0 3 C0 2.01 0 1.02 0 0 Z " fill="#4C4C4C" transform="translate(312,245)"/>
<path d="M0 0 C2.31 0 4.62 0 7 0 C7 2.97 7 5.94 7 9 C7.66 9 8.32 9 9 9 C11.50116925 12.3669586 12.56753383 14.80024969 12 19 C11.34 19.66 10.68 20.32 10 21 C7.375 20.625 7.375 20.625 5 20 C5 18.68 5 17.36 5 16 C5.66 15.67 6.32 15.34 7 15 C6.34 14.21625 5.68 13.4325 5 12.625 C3 10 3 10 3 8 C2.34 8 1.68 8 1 8 C1 7.01 1 6.02 1 5 C1.66 5 2.32 5 3 5 C3 4.34 3 3.68 3 3 C2.01 3 1.02 3 0 3 C0 2.01 0 1.02 0 0 Z " fill="#6A6A6A" transform="translate(339,298)"/>
<path d="M0 0 C1.65 0.33 3.3 0.66 5 1 C5 1.66 5 2.32 5 3 C8.63 3.33 12.26 3.66 16 4 C16.33 5.32 16.66 6.64 17 8 C12.49365811 10.39399413 8.81866256 10.22409573 4 9 C1 7.4375 1 7.4375 -1 6 C-0.67 4.02 -0.34 2.04 0 0 Z " fill="#404040" transform="translate(465,339)"/>
<path d="M0 0 C2.79164447 1.15646158 3.21412862 2.57250999 4.46484375 5.27734375 C6.51042969 9.29885172 7.70180622 10.39799791 12.02734375 11.83984375 C12.83984375 14.46484375 12.83984375 14.46484375 13.02734375 16.83984375 C12.24359375 17.23171875 11.45984375 17.62359375 10.65234375 18.02734375 C7.67577957 20.08259044 7.03910812 21.43663633 6.02734375 24.83984375 C5.36734375 24.17984375 4.70734375 23.51984375 4.02734375 22.83984375 C4.68734375 22.83984375 5.34734375 22.83984375 6.02734375 22.83984375 C6.35734375 20.52984375 6.68734375 18.21984375 7.02734375 15.83984375 C7.68734375 15.83984375 8.34734375 15.83984375 9.02734375 15.83984375 C9.02734375 14.84984375 9.02734375 13.85984375 9.02734375 12.83984375 C7.70734375 12.83984375 6.38734375 12.83984375 5.02734375 12.83984375 C5.02734375 12.17984375 5.02734375 11.51984375 5.02734375 10.83984375 C4.36734375 10.83984375 3.70734375 10.83984375 3.02734375 10.83984375 C2.36734375 9.84984375 1.70734375 8.85984375 1.02734375 7.83984375 C0.36734375 7.83984375 -0.29265625 7.83984375 -0.97265625 7.83984375 C-2.59765625 6.58984375 -2.59765625 6.58984375 -3.97265625 4.83984375 C-3.97265625 3.51984375 -3.97265625 2.19984375 -3.97265625 0.83984375 C-1.97265625 -0.16015625 -1.97265625 -0.16015625 0 0 Z " fill="#343434" transform="translate(398.97265625,378.16015625)"/>
<path d="M0 0 C0 0.66 0 1.32 0 2 C0.598125 2.04125 1.19625 2.0825 1.8125 2.125 C4 3 4 3 5.8125 5.6875 C7.15024127 9.41909408 7.08918247 11.229753 6 15 C5.01 16.485 5.01 16.485 4 18 C2.68 18 1.36 18 0 18 C0.5076854 15.9692584 1.00650907 13.98106451 1.6875 12 C2.13291092 9.95939306 2.13291092 9.95939306 1.5 7.8125 C-0.00937227 5.60414056 -0.00937227 5.60414056 -3.625 5.25 C-4.73875 5.1675 -5.8525 5.085 -7 5 C-6.6875 3.0625 -6.6875 3.0625 -6 1 C-3 0 -3 0 0 0 Z " fill="#838383" transform="translate(93,146)"/>
<path d="M0 0 C0.99 0 1.98 0 3 0 C4.125 5.75 4.125 5.75 3 8 C3.66 8 4.32 8 5 8 C4.67 11.96 4.34 15.92 4 20 C2.68 20 1.36 20 0 20 C0 19.34 0 18.68 0 18 C-0.66 18 -1.32 18 -2 18 C-2 17.34 -2 16.68 -2 16 C-2.66 15.67 -3.32 15.34 -4 15 C-3.34 14.34 -2.68 13.68 -2 13 C-2 13.66 -2 14.32 -2 15 C-1.34 15 -0.68 15 0 15 C0.76815988 10.64709404 1.07251092 7.2900437 0 3 C0 2.01 0 1.02 0 0 Z " fill="#999999" transform="translate(323,258)"/>
<path d="M0 0 C0.66 0 1.32 0 2 0 C2 0.66 2 1.32 2 2 C3.32 2.66 4.64 3.32 6 4 C5.67 5.32 5.34 6.64 5 8 C3.02 8.33 1.04 8.66 -1 9 C-1.33 9.99 -1.66 10.98 -2 12 C-3.65 12.33 -5.3 12.66 -7 13 C-7 12.01 -7 11.02 -7 10 C-7.99 9.67 -8.98 9.34 -10 9 C-10 8.01 -10 7.02 -10 6 C-4.555 5.505 -4.555 5.505 1 5 C0.67 3.35 0.34 1.7 0 0 Z " fill="#747474" transform="translate(411,162)"/>
<path d="M0 0 C0.8353125 0.804375 0.8353125 0.804375 1.6875 1.625 C2.450625 2.07875 3.21375 2.5325 4 3 C6.59047977 2.24714403 6.59047977 2.24714403 9 1 C9.99 1 10.98 1 12 1 C11.8125 2.8125 11.8125 2.8125 11 5 C9.35178756 6.03013277 7.68496298 7.03114628 6 8 C5.67 8.99 5.34 9.98 5 11 C3.35 11 1.7 11 0 11 C1.32 10.67 2.64 10.34 4 10 C3.67 9.34 3.34 8.68 3 8 C0.67843403 7.59270772 -1.6568787 7.25561323 -4 7 C-3.67 6.34 -3.34 5.68 -3 5 C-0.9375 4.375 -0.9375 4.375 1 4 C0.67 2.68 0.34 1.36 0 0 Z " fill="#676767" transform="translate(493,342)"/>
<path d="M0 0 C1.98 0.66 3.96 1.32 6 2 C6 2.66 6 3.32 6 4 C6.804375 4.2475 7.60875 4.495 8.4375 4.75 C11 6 11 6 11.71875 7.78125 C12.04598922 10.36280386 11.69212679 12.23149285 11.0625 14.75 C10.86785156 15.54921875 10.67320312 16.3484375 10.47265625 17.171875 C10.31667969 17.77515625 10.16070312 18.3784375 10 19 C8.68 19 7.36 19 6 19 C6.165 17.9275 6.33 16.855 6.5 15.75 C7.08810915 11.96971248 7.08810915 11.96971248 7 8 C7 7.34 7 6.68 7 6 C6.01 5.67 5.02 5.34 4 5 C4 4.01 4 3.02 4 2 C2.68 1.67 1.36 1.34 0 1 C0 0.67 0 0.34 0 0 Z " fill="#4B4B4B" transform="translate(463,268)"/>
<path d="M0 0 C2.64 0.33 5.28 0.66 8 1 C8 3.97 8 6.94 8 10 C5.6875 9.8125 5.6875 9.8125 3 9 C0.39811744 5.68035674 0 4.30683959 0 0 Z " fill="#5D5D5D" transform="translate(246,211)"/>
<path d="M0 0 C1.65322266 0.01740234 1.65322266 0.01740234 3.33984375 0.03515625 C4.99693359 0.04869141 4.99693359 0.04869141 6.6875 0.0625 C7.54214844 0.07410156 8.39679688 0.08570313 9.27734375 0.09765625 C8.94734375 1.08765625 8.61734375 2.07765625 8.27734375 3.09765625 C5.63734375 3.42765625 2.99734375 3.75765625 0.27734375 4.09765625 C1.26734375 5.08765625 2.25734375 6.07765625 3.27734375 7.09765625 C2.94734375 7.75765625 2.61734375 8.41765625 2.27734375 9.09765625 C-2.47265625 7.22265625 -2.47265625 7.22265625 -4.72265625 6.09765625 C-3.65171431 0.13097971 -3.65171431 0.13097971 0 0 Z " fill="#525252" transform="translate(362.72265625,326.90234375)"/>
<path d="M0 0 C0.99 0 1.98 0 3 0 C3 0.66 3 1.32 3 2 C3.78375 2.0825 4.5675 2.165 5.375 2.25 C8 3 8 3 9.3125 4.875 C10 7 10 7 10 10 C7.36 10.33 4.72 10.66 2 11 C2 10.01 2 9.02 2 8 C2.99 7.67 3.98 7.34 5 7 C4.360625 6.773125 3.72125 6.54625 3.0625 6.3125 C1 5 1 5 0.25 2.375 C0.1675 1.59125 0.085 0.8075 0 0 Z " fill="#747474" transform="translate(230,253)"/>
<path d="M0 0 C4.12759513 0.4690449 7.05286786 0.93951662 10 4 C10 5.32 10 6.64 10 8 C5.18569279 8.56638908 2.79692186 6.82561627 -1 4 C-0.67 2.68 -0.34 1.36 0 0 Z " fill="#9D9D9D" transform="translate(30,224)"/>
<path d="M0 0 C6.54420732 0.4847561 6.54420732 0.4847561 8.4375 2.625 C9.18743116 5.79137601 9.12461626 8.75997731 9 12 C8.01 12 7.02 12 6 12 C5.62875 10.329375 5.62875 10.329375 5.25 8.625 C4.38994661 4.95384802 4.38994661 4.95384802 1.875 3.5625 C1.25625 3.376875 0.6375 3.19125 0 3 C0 2.01 0 1.02 0 0 Z " fill="#505050" transform="translate(464,290)"/>
<path d="M0 0 C-0.66 0.66 -1.32 1.32 -2 2 C0.31 2.66 2.62 3.32 5 4 C5.33 5.98 5.66 7.96 6 10 C5.01 9.67 4.02 9.34 3 9 C3.33 7.68 3.66 6.36 4 5 C0.04 4.67 -3.92 4.34 -8 4 C-8.33 5.32 -8.66 6.64 -9 8 C-9 6.35 -9 4.7 -9 3 C-9.66 2.67 -10.32 2.34 -11 2 C-10.67 3.65 -10.34 5.3 -10 7 C-10.66 6.67 -11.32 6.34 -12 6 C-12 4.35 -12 2.7 -12 1 C-10.56496445 0.63597631 -9.12683494 0.28413409 -7.6875 -0.0625 C-6.88699219 -0.25972656 -6.08648437 -0.45695312 -5.26171875 -0.66015625 C-3 -1 -3 -1 0 0 Z " fill="#8D8D8D" transform="translate(505,381)"/>
<path d="M0 0 C0.66 0 1.32 0 2 0 C2.66 0.99 3.32 1.98 4 3 C4.33 2.34 4.66 1.68 5 1 C6.65 1.33 8.3 1.66 10 2 C10 2.66 10 3.32 10 4 C10.66 4.33 11.32 4.66 12 5 C11.67 3.68 11.34 2.36 11 1 C11.66 1.33 12.32 1.66 13 2 C13 3.32 13 4.64 13 6 C7.06 6.495 7.06 6.495 1 7 C0.34 5.68 -0.32 4.36 -1 3 C-0.34 3 0.32 3 1 3 C0.67 2.01 0.34 1.02 0 0 Z " fill="#7B7B7B" transform="translate(381,224)"/>
<path d="M0 0 C0.99 0 1.98 0 3 0 C3.36504603 1.58086048 3.71660506 3.16483907 4.0625 4.75 C4.25972656 5.63171875 4.45695312 6.5134375 4.66015625 7.421875 C4.99825872 9.98679028 4.81158635 11.57091639 4 14 C3.01 14 2.02 14 1 14 C0.93941406 13.39671875 0.87882812 12.7934375 0.81640625 12.171875 C0.69072266 10.97304687 0.69072266 10.97304687 0.5625 9.75 C0.48128906 8.96109375 0.40007812 8.1721875 0.31640625 7.359375 C0.05128191 5.0012079 0.05128191 5.0012079 -0.59765625 2.765625 C-0.73042969 2.18296875 -0.86320312 1.6003125 -1 1 C-0.67 0.67 -0.34 0.34 0 0 Z " fill="#656565" transform="translate(418,199)"/>
<path d="M0 0 C3.63 0.33 7.26 0.66 11 1 C11 1.66 11 2.32 11 3 C12.65 3 14.3 3 16 3 C16.33 4.32 16.66 5.64 17 7 C16.34 6.34 15.68 5.68 15 5 C12.26565038 4.6936141 9.61720179 4.4886664 6.875 4.375 C6.12089844 4.33632812 5.36679687 4.29765625 4.58984375 4.2578125 C2.72696816 4.16348969 0.86351745 4.08065338 -1 4 C-0.67 2.68 -0.34 1.36 0 0 Z " fill="#7E7E7E" transform="translate(413,239)"/>
<path d="M0 0 C1.98 0.495 1.98 0.495 4 1 C4 1.66 4 2.32 4 3 C5.65 3 7.3 3 9 3 C9 5.64 9 8.28 9 11 C8.01 11 7.02 11 6 11 C6 9.35 6 7.7 6 6 C5.34 6 4.68 6 4 6 C4 5.34 4 4.68 4 4 C2.35 4 0.7 4 -1 4 C-0.67 2.68 -0.34 1.36 0 0 Z " fill="#9C9C9C" transform="translate(225,145)"/>
<path d="M0 0 C0.66 0.185625 1.32 0.37125 2 0.5625 C5.89330114 1.13027308 9.11375479 0.59281707 13 0 C13.33 1.32 13.66 2.64 14 4 C10.49223216 5.60355101 7.85645121 6.22036864 4 6 C5.32 5.67 6.64 5.34 8 5 C8 4.34 8 3.68 8 3 C5.36 2.67 2.72 2.34 0 2 C0 1.34 0 0.68 0 0 Z " fill="#707070" transform="translate(468,343)"/>
<path d="M0 0 C2.97599696 1.26254416 3.75574487 2.98638339 5.0625 5.875 C4.7325 6.865 4.4025 7.855 4.0625 8.875 C3.4025 8.215 2.7425 7.555 2.0625 6.875 C1.0725 7.205 0.0825 7.535 -0.9375 7.875 C-2.4375 6.625 -2.4375 6.625 -3.9375 4.875 C-3.9375 3.555 -3.9375 2.235 -3.9375 0.875 C-1.9375 -0.125 -1.9375 -0.125 0 0 Z " fill="#424242" transform="translate(398.9375,378.125)"/>
<path d="M0 0 C1.32 0.33 2.64 0.66 4 1 C4 1.66 4 2.32 4 3 C5.98 3 7.96 3 10 3 C10 2.01 10 1.02 10 0 C10.99 0 11.98 0 13 0 C13 1.65 13 3.3 13 5 C11.20841511 5.02696365 9.41671527 5.04637917 7.625 5.0625 C6.62726563 5.07410156 5.62953125 5.08570313 4.6015625 5.09765625 C2 5 2 5 0 4 C0 2.68 0 1.36 0 0 Z " fill="#303030" transform="translate(262,168)"/>
<path d="M0 0 C0.33 0.66 0.66 1.32 1 2 C2.93330603 3.09166275 2.93330603 3.09166275 5 4 C5.66 4.33 6.32 4.66 7 5 C7 5.99 7 6.98 7 8 C8.32 8.66 9.64 9.32 11 10 C11 10.66 11 11.32 11 12 C9.35 11.67 7.7 11.34 6 11 C6 10.01 6 9.02 6 8 C5.38125 7.9175 4.7625 7.835 4.125 7.75 C2 7 2 7 0.75 5.125 C0 3 0 3 0 0 Z " fill="#7C7C7C" transform="translate(456,270)"/>
<path d="M0 0 C1.65 0 3.3 0 5 0 C4.01 0.33 3.02 0.66 2 1 C2 2.65 2 4.3 2 6 C3.953125 5.93489583 5.90625 5.86979167 7.859375 5.8046875 C10.30155975 6.02751458 11.88636771 6.79085 14 8 C12.25181409 8.22304441 10.50129677 8.4278645 8.75 8.625 C7.77546875 8.74101562 6.8009375 8.85703125 5.796875 8.9765625 C2.86570607 9.00112537 1.45471036 8.5312717 -1 7 C-1 6.34 -1 5.68 -1 5 C-0.34 5 0.32 5 1 5 C0.67 3.35 0.34 1.7 0 0 Z " fill="#1B1B1B" transform="translate(494,383)"/>
<path d="M0 0 C0.99 0 1.98 0 3 0 C3.33 0.99 3.66 1.98 4 3 C3.67 3.66 3.34 4.32 3 5 C1.68 5 0.36 5 -1 5 C-1.33 5.66 -1.66 6.32 -2 7 C-2 5.02 -2 3.04 -2 1 C-2.66 1 -3.32 1 -4 1 C-4 1.66 -4 2.32 -4 3 C-4.99 3 -5.98 3 -7 3 C-7 2.01 -7 1.02 -7 0 C-4.31581667 -1.34209166 -2.88064523 -0.63233676 0 0 Z " fill="#787878" transform="translate(291,156)"/>
<path d="M0 0 C1.98 0 3.96 0 6 0 C6 1.98 6 3.96 6 6 C3.625 6.625 3.625 6.625 1 7 C0.34 6.34 -0.32 5.68 -1 5 C-0.625 2.375 -0.625 2.375 0 0 Z " fill="#353535" transform="translate(364,448)"/>
<path d="M0 0 C2.97 0.33 5.94 0.66 9 1 C9 3.64 9 6.28 9 9 C8.34 8.34 7.68 7.68 7 7 C7 6.01 7 5.02 7 4 C6.236875 4.020625 5.47375 4.04125 4.6875 4.0625 C2 4 2 4 -1 3 C-0.67 2.01 -0.34 1.02 0 0 Z " fill="#252525" transform="translate(503,381)"/>
<path d="M0 0 C1.66611905 -0.042721 3.33382885 -0.04063832 5 0 C5.33 0.33 5.66 0.66 6 1 C8.33297433 1.04092937 10.66705225 1.04241723 13 1 C13 1.33 13 1.66 13 2 C11.02 2.33 9.04 2.66 7 3 C8.65 3.33 10.3 3.66 12 4 C12 4.33 12 4.66 12 5 C10.5629191 5.05422947 9.12524538 5.09289723 7.6875 5.125 C6.88699219 5.14820313 6.08648437 5.17140625 5.26171875 5.1953125 C3 5 3 5 0 3 C0 2.01 0 1.02 0 0 Z " fill="#777777" transform="translate(300,256)"/>
<path d="M0 0 C2.64 0 5.28 0 8 0 C7.34 2.31 6.68 4.62 6 7 C5.01 7 4.02 7 3 7 C3 6.01 3 5.02 3 4 C2.01 3.67 1.02 3.34 0 3 C0 2.01 0 1.02 0 0 Z " fill="#646464" transform="translate(401,168)"/>
<path d="M0 0 C2.96175123 0.61277612 4.38058783 1.25372522 7 3 C8.32 3 9.64 3 11 3 C11 3.66 11 4.32 11 5 C6.58937864 6.0257259 4.07369424 6.03684712 0 4 C0 2.68 0 1.36 0 0 Z " fill="#5E5E5E" transform="translate(217,151)"/>
<path d="M0 0 C1.65 0 3.3 0 5 0 C5.93065133 2.60582371 6.14917407 3.64198224 5.0625 6.25 C4.5365625 7.11625 4.5365625 7.11625 4 8 C3.01 8 2.02 8 1 8 C1.33 6.35 1.66 4.7 2 3 C1.34 3 0.68 3 0 3 C0 2.01 0 1.02 0 0 Z " fill="#7B7B7B" transform="translate(312,158)"/>
<path d="M0 0 C4.875 1.875 4.875 1.875 6 3 C7.99958364 3.04080783 10.00045254 3.04254356 12 3 C12 3.99 12 4.98 12 6 C6.28341664 6.45732667 3.51350747 5.52273754 -1 2 C-0.67 1.34 -0.34 0.68 0 0 Z " fill="#343434" transform="translate(360,333)"/>
<path d="M0 0 C2.97 0.495 2.97 0.495 6 1 C6 1.66 6 2.32 6 3 C5.34 3 4.68 3 4 3 C4.33 5.31 4.66 7.62 5 10 C3.68 9.67 2.36 9.34 1 9 C1.020625 8.071875 1.04125 7.14375 1.0625 6.1875 C1.15769604 2.97713989 1.15769604 2.97713989 0 0 Z " fill="#232323" transform="translate(377,217)"/>
<path d="M0 0 C0.99 0 1.98 0 3 0 C2.42415568 2.38564077 1.77772405 4.66682784 1 7 C-0.9375 7.5625 -0.9375 7.5625 -3 8 C-3.66 8.66 -4.32 9.32 -5 10 C-5.66 9.67 -6.32 9.34 -7 9 C-7 8.34 -7 7.68 -7 7 C-6.34 7 -5.68 7 -5 7 C-5 6.34 -5 5.68 -5 5 C-3.68 5 -2.36 5 -1 5 C-0.67 3.35 -0.34 1.7 0 0 Z " fill="#383838" transform="translate(295,156)"/>
<path d="M0 0 C0.99 0.33 1.98 0.66 3 1 C3.125 3.375 3.125 3.375 3 6 C2.34 6.66 1.68 7.32 1 8 C-0.32 8 -1.64 8 -3 8 C-2.37240135 5.07120629 -1.41377341 2.63904371 0 0 Z " fill="#757575" transform="translate(378,15)"/>
<path d="M0 0 C1.98 0.66 3.96 1.32 6 2 C6 2.66 6 3.32 6 4 C8.475 4.99 8.475 4.99 11 6 C10.67 7.32 10.34 8.64 10 10 C9.01 9.34 8.02 8.68 7 8 C7 7.34 7 6.68 7 6 C6.01 5.67 5.02 5.34 4 5 C4 4.01 4 3.02 4 2 C2.68 1.67 1.36 1.34 0 1 C0 0.67 0 0.34 0 0 Z " fill="#272727" transform="translate(463,268)"/>
<path d="M0 0 C0.66 0.66 1.32 1.32 2 2 C1.34 2 0.68 2 0 2 C0.99 3.485 0.99 3.485 2 5 C2 5.99 2 6.98 2 8 C1.34 8 0.68 8 0 8 C0 9.32 0 10.64 0 12 C-1.65 12 -3.3 12 -5 12 C-3.68 11.67 -2.36 11.34 -1 11 C-1.33 10.34 -1.66 9.68 -2 9 C-3.65 9 -5.3 9 -7 9 C-3.25 7 -3.25 7 -1 7 C-1.020625 6.030625 -1.04125 5.06125 -1.0625 4.0625 C-1 1 -1 1 0 0 Z " fill="#9D9D9D" transform="translate(373,328)"/>
<path d="M0 0 C2.0625 0.4375 2.0625 0.4375 4 1 C3.01 1 2.02 1 1 1 C2.86566488 4.62793998 2.86566488 4.62793998 6 7 C5.67 7.66 5.34 8.32 5 9 C0.25 7.125 0.25 7.125 -2 6 C-1.125 1.125 -1.125 1.125 0 0 Z " fill="#828282" transform="translate(360,327)"/>
<path d="M0 0 C0.99 0 1.98 0 3 0 C3.103125 0.61875 3.20625 1.2375 3.3125 1.875 C3.87525373 4.36526484 3.87525373 4.36526484 7 6 C5.1875 7.0625 5.1875 7.0625 3 8 C2.01 7.67 1.02 7.34 0 7 C0 4.69 0 2.38 0 0 Z " fill="#8B8B8B" transform="translate(276,162)"/>
<path d="M0 0 C0 0.66 0 1.32 0 2 C-1.98 2 -3.96 2 -6 2 C-6 2.66 -6 3.32 -6 4 C-7.32 4 -8.64 4 -10 4 C-9.6875 2.0625 -9.6875 2.0625 -9 0 C-5.52176885 -1.15941038 -3.54104422 -0.70820884 0 0 Z " fill="#252525" transform="translate(431,246)"/>
<path d="M0 0 C5.75 -0.125 5.75 -0.125 8 1 C8 2.32 8 3.64 8 5 C5.07120629 4.37240135 2.63904371 3.41377341 0 2 C0 1.34 0 0.68 0 0 Z " fill="#171717" transform="translate(31,226)"/>
<path d="M0 0 C2.475 0.495 2.475 0.495 5 1 C5 2.65 5 4.3 5 6 C3.68 6 2.36 6 1 6 C0.67 4.02 0.34 2.04 0 0 Z " fill="#777777" transform="translate(338,406)"/>
<path d="M0 0 C2 1.3125 2 1.3125 4 3 C4 6 4 6 3 8 C0.69 7.67 -1.62 7.34 -4 7 C-3.67 6.34 -3.34 5.68 -3 5 C-0.9375 4.375 -0.9375 4.375 1 4 C0.67 2.68 0.34 1.36 0 0 Z " fill="#8C8C8C" transform="translate(493,342)"/>
<path d="M0 0 C0.66 0 1.32 0 2 0 C2 0.66 2 1.32 2 2 C4.64 2.33 7.28 2.66 10 3 C10 3.66 10 4.32 10 5 C3.51707705 5.3669579 3.51707705 5.3669579 1.0625 3.625 C0 2 0 2 0 0 Z " fill="#141414" transform="translate(466,343)"/>
<path d="M0 0 C0.99 0 1.98 0 3 0 C3 0.66 3 1.32 3 2 C3.66 2 4.32 2 5 2 C5 3.65 5 5.3 5 7 C4.01 7 3.02 7 2 7 C2 5.68 2 4.36 2 3 C1.34 3 0.68 3 0 3 C0 2.01 0 1.02 0 0 Z " fill="#878787" transform="translate(420,251)"/>
<path d="M0 0 C2.89932357 2.39509338 3.50168276 4.31245243 4 8 C2.125 7.75 2.125 7.75 0 7 C-1.25 4.9375 -1.25 4.9375 -2 3 C-1.34 2.67 -0.68 2.34 0 2 C0 1.34 0 0.68 0 0 Z " fill="#7E7E7E" transform="translate(315,246)"/>
<path d="M0 0 C0.66 0 1.32 0 2 0 C2.33 3.3 2.66 6.6 3 10 C2.01 9.67 1.02 9.34 0 9 C0 6.03 0 3.06 0 0 Z " fill="#1D1D1D" transform="translate(317,263)"/>
<path d="M0 0 C1.231394 3.69418201 0.64432764 6.2056261 0 10 C-0.66 10 -1.32 10 -2 10 C-2 9.34 -2 8.68 -2 8 C-2.66 8 -3.32 8 -4 8 C-4 7.34 -4 6.68 -4 6 C-3.34 6 -2.68 6 -2 6 C-1.34 4.02 -0.68 2.04 0 0 Z " fill="#0D0D0D" transform="translate(326,267)"/>
<path d="M0 0 C0.99 0 1.98 0 3 0 C3.33 1.65 3.66 3.3 4 5 C3.01 4.67 2.02 4.34 1 4 C1 4.66 1 5.32 1 6 C0.01 5.67 -0.98 5.34 -2 5 C-2 4.34 -2 3.68 -2 3 C-1.34 3 -0.68 3 0 3 C0 2.01 0 1.02 0 0 Z " fill="#2C2C2C" transform="translate(312,245)"/>
<path d="M0 0 C1.32 0 2.64 0 4 0 C4 2.64 4 5.28 4 8 C3.34 8 2.68 8 2 8 C2 6.02 2 4.04 2 2 C1.34 2 0.68 2 0 2 C0 1.34 0 0.68 0 0 Z " fill="#393939" transform="translate(230,148)"/>
<path d="M0 0 C2.475 0.495 2.475 0.495 5 1 C5 2.32 5 3.64 5 5 C4.01 5 3.02 5 2 5 C2 4.34 2 3.68 2 3 C1.34 3 0.68 3 0 3 C0 2.01 0 1.02 0 0 Z " fill="#878787" transform="translate(416,254)"/>
<path d="M0 0 C1.32 0.33 2.64 0.66 4 1 C4 1.66 4 2.32 4 3 C4.66 3.33 5.32 3.66 6 4 C2.25 5.125 2.25 5.125 0 4 C0 2.68 0 1.36 0 0 Z " fill="#4B4B4B" transform="translate(262,168)"/>
<path d="M0 0 C0 0.66 0 1.32 0 2 C0.99 2.33 1.98 2.66 3 3 C-1.455 3.495 -1.455 3.495 -6 4 C-6 3.01 -6 2.02 -6 1 C-3 0 -3 0 0 0 Z " fill="#515151" transform="translate(93,146)"/>
<path d="M0 0 C0.99 0 1.98 0 3 0 C2.6875 1.9375 2.6875 1.9375 2 4 C1.01 4.33 0.02 4.66 -1 5 C-1.33 5.66 -1.66 6.32 -2 7 C-2 5.35 -2 3.7 -2 2 C-1.34 2 -0.68 2 0 2 C0 1.34 0 0.68 0 0 Z " fill="#4C4C4C" transform="translate(375,328)"/>
<path d="M0 0 C2.3431213 0.25561323 4.67843403 0.59270772 7 1 C7.33 1.66 7.66 2.32 8 3 C2.25 4.125 2.25 4.125 0 3 C0 2.01 0 1.02 0 0 Z " fill="#797979" transform="translate(464,290)"/>
<path d="M0 0 C0.66 0 1.32 0 2 0 C1.67 1.65 1.34 3.3 1 5 C-0.32 5 -1.64 5 -3 5 C-3 4.01 -3 3.02 -3 2 C-2.01 2 -1.02 2 0 2 C0 1.34 0 0.68 0 0 Z " fill="#5C5C5C" transform="translate(425,260)"/>
<path d="M0 0 C1.65 1.32 3.3 2.64 5 4 C3.68 4.33 2.36 4.66 1 5 C1.66 5 2.32 5 3 5 C2.67 5.66 2.34 6.32 2 7 C0.68 5.68 -0.64 4.36 -2 3 C-1.34 2.67 -0.68 2.34 0 2 C0 1.34 0 0.68 0 0 Z " fill="#868686" transform="translate(383,218)"/>
<path d="M0 0 C0.99 0 1.98 0 3 0 C3.33 1.98 3.66 3.96 4 6 C3.01 6 2.02 6 1 6 C0.67 4.02 0.34 2.04 0 0 Z " fill="#999999" transform="translate(414,206)"/>
<path d="M0 0 C2.475 0.495 2.475 0.495 5 1 C5 1.99 5 2.98 5 4 C3.35 3.67 1.7 3.34 0 3 C0 2.01 0 1.02 0 0 Z " fill="#696969" transform="translate(87,159)"/>
<path d="M0 0 C1.65 0 3.3 0 5 0 C5.66 1.98 6.32 3.96 7 6 C6.01 6 5.02 6 4 6 C3.71125 5.38125 3.4225 4.7625 3.125 4.125 C2.06279958 1.86674235 2.06279958 1.86674235 0 0 Z " fill="#2B2B2B" transform="translate(92,149)"/>
<path d="M0 0 C0.33 0.66 0.66 1.32 1 2 C1.66 2 2.32 2 3 2 C3 3.65 3 5.3 3 7 C2.01 7 1.02 7 0 7 C0 4.69 0 2.38 0 0 Z " fill="#414141" transform="translate(470,295)"/>
<path d="M0 0 C0.99 0 1.98 0 3 0 C3 0.66 3 1.32 3 2 C3.66 2.33 4.32 2.66 5 3 C5 3.99 5 4.98 5 6 C3.68 5.67 2.36 5.34 1 5 C0.67 3.35 0.34 1.7 0 0 Z " fill="#999999" transform="translate(230,253)"/>
<path d="M0 0 C0.66 0.99 1.32 1.98 2 3 C1.67 3.66 1.34 4.32 1 5 C-0.32 5 -1.64 5 -3 5 C-2.625 3.0625 -2.625 3.0625 -2 1 C-1.34 0.67 -0.68 0.34 0 0 Z " fill="#878787" transform="translate(309,248)"/>
<path d="M0 0 C2.31 0 4.62 0 7 0 C6.67 0.99 6.34 1.98 6 3 C3.03 2.505 3.03 2.505 0 2 C0 1.34 0 0.68 0 0 Z " fill="#161616" transform="translate(285,249)"/>
<path d="M0 0 C0 0.99 0 1.98 0 3 C-1.65 3.33 -3.3 3.66 -5 4 C-5 3.01 -5 2.02 -5 1 C-3 0 -3 0 0 0 Z " fill="#8D8D8D" transform="translate(223,145)"/>
<path d="M0 0 C1.65 0 3.3 0 5 0 C5 0.99 5 1.98 5 3 C3.35 3 1.7 3 0 3 C0 2.01 0 1.02 0 0 Z " fill="#5A5A5A" transform="translate(259,265)"/>
<path d="M0 0 C2.475 0.495 2.475 0.495 5 1 C5 1.99 5 2.98 5 4 C4.01 4 3.02 4 2 4 C2 3.34 2 2.68 2 2 C1.34 2 0.68 2 0 2 C0 1.34 0 0.68 0 0 Z " fill="#7F7F7F" transform="translate(463,296)"/>
<path d="M0 0 C1.32 0.33 2.64 0.66 4 1 C4 1.99 4 2.98 4 4 C2.68 4 1.36 4 0 4 C0 2.68 0 1.36 0 0 Z " fill="#5F5F5F" transform="translate(334,296)"/>
<path d="M0 0 C0.99 0 1.98 0 3 0 C3 1.32 3 2.64 3 4 C1.68 4 0.36 4 -1 4 C-0.67 2.68 -0.34 1.36 0 0 Z " fill="#7F7F7F" transform="translate(457,206)"/>
<path d="M0 0 C0.99 0 1.98 0 3 0 C3 0.99 3 1.98 3 3 C2.34 3 1.68 3 1 3 C1 3.66 1 4.32 1 5 C0.34 5 -0.32 5 -1 5 C-0.67 3.35 -0.34 1.7 0 0 Z " fill="#404040" transform="translate(426,122)"/>
<path d="M0 0 C0.99 0 1.98 0 3 0 C3 0.99 3 1.98 3 3 C2.01 3 1.02 3 0 3 C0 2.01 0 1.02 0 0 Z " fill="#9A9A9A" transform="translate(382,406)"/>
<path d="M0 0 C0.99 0 1.98 0 3 0 C3 0.99 3 1.98 3 3 C2.01 3 1.02 3 0 3 C0 2.01 0 1.02 0 0 Z " fill="#9B9B9B" transform="translate(377,316)"/>
<path d="M0 0 C0.99 0 1.98 0 3 0 C3 0.99 3 1.98 3 3 C2.01 3 1.02 3 0 3 C0 2.01 0 1.02 0 0 Z " fill="#9A9A9A" transform="translate(308,292)"/>
<path d="M0 0 C0.99 0 1.98 0 3 0 C3 0.99 3 1.98 3 3 C2.01 3 1.02 3 0 3 C0 2.01 0 1.02 0 0 Z " fill="#9A9A9A" transform="translate(465,275)"/>
<path d="M0 0 C0.99 0 1.98 0 3 0 C3 0.99 3 1.98 3 3 C2.01 3 1.02 3 0 3 C0 2.01 0 1.02 0 0 Z " fill="#9C9C9C" transform="translate(240,265)"/>
<path d="M0 0 C0.99 0 1.98 0 3 0 C3 0.99 3 1.98 3 3 C2.01 3 1.02 3 0 3 C0 2.01 0 1.02 0 0 Z " fill="#9C9C9C" transform="translate(399,216)"/>
<path d="M0 0 C0.99 0 1.98 0 3 0 C3 0.99 3 1.98 3 3 C2.01 3 1.02 3 0 3 C0 2.01 0 1.02 0 0 Z " fill="#9A9A9A" transform="translate(308,159)"/>
<path d="M0 0 C0.99 0 1.98 0 3 0 C3 0.99 3 1.98 3 3 C2.01 3 1.02 3 0 3 C0 2.01 0 1.02 0 0 Z " fill="#696969" transform="translate(279,156)"/>
<path d="M0 0 C0.99 0 1.98 0 3 0 C3 0.66 3 1.32 3 2 C2.01 2 1.02 2 0 2 C0 1.34 0 0.68 0 0 Z " fill="#686868" transform="translate(416,248)"/>
<path d="M0 0 C0.99 0 1.98 0 3 0 C3 0.66 3 1.32 3 2 C2.01 2 1.02 2 0 2 C0 1.34 0 0.68 0 0 Z " fill="#696969" transform="translate(84,156)"/>
</svg>
