<?xml version="1.0" encoding="UTF-8"?>
<svg version="1.1" xmlns="http://www.w3.org/2000/svg" width="547" height="456">
<path d="M0 0 C0 0.99 0 1.98 0 3 C0.66 3 1.32 3 2 3 C1.67 4.98 1.34 6.96 1 9 C-3.83441687 9.09479249 -8.25800317 9.02529661 -13 8 C-14.9996441 7.96227087 -17.00054061 7.95350094 -19 8 C-19.04125 8.680625 -19.0825 9.36125 -19.125 10.0625 C-20.37461889 14.25764912 -22.85498456 17.00582463 -26 20 C-26.928125 20.474375 -27.85625 20.94875 -28.8125 21.4375 C-31.15691722 22.76374899 -31.15691722 22.76374899 -31.53125 24.953125 C-31.78373386 26.95896899 -31.90069353 28.98076836 -32 31 C-31.195625 30.814375 -30.39125 30.62875 -29.5625 30.4375 C-25.21746916 29.90389972 -21.31010276 30.3774296 -17 31 C-16.9175 31.78375 -16.835 32.5675 -16.75 33.375 C-16.28893411 36.08384061 -16.28893411 36.08384061 -14.26953125 37.109375 C-11.031044 38.38024435 -7.77084394 38.75720401 -4.33984375 39.2421875 C-1.37568816 40.20219783 -0.45683806 41.2759124 1 44 C0.1875 47.25 0.1875 47.25 -1 50 C2.3 51.32 5.6 52.64 9 54 C9.31939183 58.63118155 9.4093357 61.14984124 7.375 65.375 C4.70169982 68.3297002 2.84096129 69.12705425 -1 70 C-1.04125 70.7425 -1.0825 71.485 -1.125 72.25 C-2.34846946 76.09518973 -4.63102982 76.96458052 -8 79 C-8.33 79.66 -8.66 80.32 -9 81 C-8.34 81 -7.68 81 -7 81 C-6.95101563 81.80824219 -6.90203125 82.61648437 -6.8515625 83.44921875 C-6.73941406 85.05216797 -6.73941406 85.05216797 -6.625 86.6875 C-6.55539062 87.74324219 -6.48578125 88.79898438 -6.4140625 89.88671875 C-6.00983565 92.92604708 -5.20182471 95.20045538 -4 98 C-3.61936779 100.3260857 -3.28730055 102.66055264 -3 105 C-2.690625 106.5159375 -2.690625 106.5159375 -2.375 108.0625 C-2 111 -2 111 -2.6875 114.125 C-3.2982642 117.00376309 -3.2982642 117.00376309 -1.6875 119.125 C1.57414304 121.40056491 4.88867331 122.67398879 8.60546875 124.05078125 C11 125 11 125 13.75 126.75 C17.82876214 129.01597897 21.68094988 128.1517467 26 127 C26.06058594 127.60328125 26.12117188 128.2065625 26.18359375 128.828125 C26.30927734 130.02695312 26.30927734 130.02695312 26.4375 131.25 C26.51871094 132.03890625 26.59992188 132.8278125 26.68359375 133.640625 C26.97634993 135.82364639 27.42064419 137.8773182 28 140 C28.89203125 140.10957031 29.7840625 140.21914062 30.703125 140.33203125 C31.87359375 140.49058594 33.0440625 140.64914063 34.25 140.8125 C35.99023438 141.03873047 35.99023438 141.03873047 37.765625 141.26953125 C41.02274094 142.00513594 42.68943814 142.6159973 45 145 C45.52238806 150.95522388 45.52238806 150.95522388 44 154 C42.18579262 154.62142493 40.34712154 155.17207846 38.5 155.6875 C32.23840827 157.65735481 27.84688506 160.64269929 23 165 C23.51309638 167.59157157 24.03946281 170.17363635 24.625 172.75 C25.11010098 176.95420851 24.60240152 180.82952796 24 185 C24.99 185.33 25.98 185.66 27 186 C27 187.32 27 188.64 27 190 C24.8125 191.9375 24.8125 191.9375 22 194 C21.13375 194.886875 20.2675 195.77375 19.375 196.6875 C17 199 17 199 14 200 C14 200.99 14 201.98 14 203 C12.68 203.33 11.36 203.66 10 204 C9.87625 204.5775 9.7525 205.155 9.625 205.75 C9 208 9 208 7.875 209.9375 C6.73378428 212.02919387 6.73378428 212.02919387 7.6875 214.4375 C8 217 8 217 6.125 219.5625 C2.32019345 222.53024911 -1.55105943 224.21692755 -6 226 C-6.66 226.33 -7.32 226.66 -8 227 C-8.73719245 229.17119854 -8.73719245 229.17119854 -9.3125 231.8125 C-10.9560772 238.17207005 -13.26153469 244.03734771 -16 250 C-16.28746094 250.7321875 -16.57492187 251.464375 -16.87109375 252.21875 C-19.85439205 258.45768089 -25.37703053 260.48997434 -31.25390625 263.49584961 C-35.55329316 265.81753848 -38.03000591 267.48253565 -39.8125 272.25 C-40.23408321 273.82667247 -40.63383182 275.4095443 -41 277 C-42.51621496 279.84290304 -43.9761586 281.97335373 -46.125 284.375 C-48.4202293 287.58832102 -48.6948519 290.1093617 -49 294 C-51.87466199 294.95822066 -53.88171769 295.12564999 -56.875 295.25 C-62.75856631 295.71943348 -67.64666054 297.55829389 -73.0546875 299.84375 C-77.16540704 301.45750727 -79.75062416 302.41645861 -84 301 C-85.16796875 299.22265625 -85.16796875 299.22265625 -86.1875 297.0625 C-86.70376953 295.99708984 -86.70376953 295.99708984 -87.23046875 294.91015625 C-88 293 -88 293 -88 291 C-89.98 291 -91.96 291 -94 291 C-94.37125 292.175625 -94.37125 292.175625 -94.75 293.375 C-96 296 -96 296 -97.9765625 296.88671875 C-100.16773868 297.83529003 -100.16773868 297.83529003 -100.9765625 300.05859375 C-101.19054687 300.84363281 -101.40453125 301.62867188 -101.625 302.4375 C-102.48796373 305.51878815 -103.18021269 307.27031903 -105 310 C-105.66 310 -106.32 310 -107 310 C-107.4021875 310.86625 -107.4021875 310.86625 -107.8125 311.75 C-109.02929189 314.05550043 -110.30333879 316.02056192 -112 318 C-112.66 318 -113.32 318 -114 318 C-116.56764222 322.95188142 -118.22514384 327.44686418 -119 333 C-118.0925 333.28875 -117.185 333.5775 -116.25 333.875 C-113 335 -113 335 -111.0625 336.125 C-108.82680974 337.23188897 -108.82680974 337.23188897 -105.4375 337 C-102 337 -102 337 -99 339 C-98.671875 341.390625 -98.671875 341.390625 -98.75 344.25 C-98.78287109 345.73306641 -98.78287109 345.73306641 -98.81640625 347.24609375 C-99 350 -99 350 -99.6875 353.3125 C-100.11498772 356.98889442 -98.90375192 358.89758947 -97 362 C-95.18806994 364.24324836 -95.18806994 364.24324836 -92.6171875 364.1953125 C-91.71226562 364.17210937 -90.80734375 364.14890625 -89.875 364.125 C-88.96492188 364.10695313 -88.05484375 364.08890625 -87.1171875 364.0703125 C-86.41851562 364.04710937 -85.71984375 364.02390625 -85 364 C-83.38746723 366.90255899 -82.95881154 368.4256141 -82.625 371.875 C-82.18618323 376.12211944 -80.47398842 378.50731046 -78 382 C-77.14718549 383.96834438 -76.43145847 385.95486111 -75.7265625 387.98046875 C-75.01490891 389.95855965 -74.18787848 391.83971144 -73.3125 393.75 C-72 397 -72 397 -72 401 C-72.66 401.33 -73.32 401.66 -74 402 C-74 402.99 -74 403.98 -74 405 C-73.01 405.33 -72.02 405.66 -71 406 C-71.6875 407.9375 -71.6875 407.9375 -73 410 C-74.65614657 410.38218767 -76.32457024 410.71395102 -78 411 C-78.433125 411.515625 -78.86625 412.03125 -79.3125 412.5625 C-82.16594554 414.99321286 -85.3658808 414.17872717 -89 414 C-89.33 412.35 -89.66 410.7 -90 409 C-96.56626654 411.40494764 -96.56626654 411.40494764 -102.625 414.8125 C-106.31004001 416.65502001 -109.00643566 415.79871287 -113 415 C-113.33 414.67 -113.66 414.34 -114 414 C-115.75763337 413.92487944 -117.5182272 413.91683322 -119.27734375 413.9375 C-120.34791016 413.94523437 -121.41847656 413.95296875 -122.52148438 413.9609375 C-124.79492239 413.9869345 -127.06835989 414.01297602 -129.34179688 414.0390625 C-130.41365234 414.04679687 -131.48550781 414.05453125 -132.58984375 414.0625 C-134.07278931 414.07990234 -134.07278931 414.07990234 -135.58569336 414.09765625 C-138 414 -138 414 -140 413 C-140.144375 414.299375 -140.28875 415.59875 -140.4375 416.9375 C-140.875 420.875 -140.875 420.875 -142 422 C-143.93491087 422.26930681 -145.87306473 422.51548546 -147.8125 422.75 C-152.75419653 423.51306329 -152.75419653 423.51306329 -156.75 426.4375 C-158.21921182 428.97419694 -158.21921182 428.97419694 -158 432 C-159.65 432 -161.3 432 -163 432 C-163 431.34 -163 430.68 -163 430 C-164.49707939 429.36803616 -165.99786703 428.74485607 -167.5 428.125 C-168.41136719 427.74601562 -169.32273438 427.36703125 -170.26171875 426.9765625 C-172.7281744 426.09694208 -174.73440831 425.7661892 -177.3125 425.5 C-181 424 -181 424 -182.46484375 421.5625 C-183.78710479 418.41158008 -184.90907072 415.23772226 -186 412 C-186.73968767 410.18326711 -187.48880898 408.37032867 -188.25 406.5625 C-189.61518291 403.25584796 -190.27766849 400.61165754 -191 397 C-195.29 397 -199.58 397 -204 397 C-204.2632613 389.1021611 -204.2632613 389.1021611 -202 385 C-201.83249586 382.33290931 -201.83249586 382.33290931 -202 380 C-202.86625 379.566875 -202.86625 379.566875 -203.75 379.125 C-205.14692996 378.42653502 -206.5279118 377.69378921 -207.87890625 376.91015625 C-210.32858101 375.85900668 -211.57642128 375.91774675 -214.1875 376.3125 C-214.96738281 376.42207031 -215.74726563 376.53164063 -216.55078125 376.64453125 C-217.35902344 376.76183594 -218.16726562 376.87914062 -219 377 C-220.62450707 377.17140468 -222.24950365 377.33824588 -223.875 377.5 C-226.50403095 377.7638454 -228.4573044 378.1524348 -231 379 C-231.99 378.67 -232.98 378.34 -234 378 C-238.57143624 377.61392196 -238.57143624 377.61392196 -242.80078125 379.00390625 C-245.84852047 380.38432099 -248.42357615 380.19152848 -251.75 380.125 C-252.92046875 380.10695313 -254.0909375 380.08890625 -255.296875 380.0703125 C-256.63492188 380.03550781 -256.63492188 380.03550781 -258 380 C-258 380.99 -258 381.98 -258 383 C-259.98 383 -261.96 383 -264 383 C-264.33 382.34 -264.66 381.68 -265 381 C-272.15727664 378.13708934 -283.50807556 374.50269185 -291 377 C-291.33 378.65 -291.66 380.3 -292 382 C-292.53367187 381.855625 -293.06734375 381.71125 -293.6171875 381.5625 C-298.67838964 380.30157767 -303.17076697 379.91959245 -308.37109375 380.07421875 C-312.24790505 379.9647694 -315.89620683 379.06870307 -319.65234375 378.14453125 C-322.05716301 377.74604139 -322.05716301 377.74604139 -323.81640625 379.32421875 C-325.19230248 380.93033349 -325.19230248 380.93033349 -325 383 C-326.65 383 -328.3 383 -330 383 C-330.66 381.68 -331.32 380.36 -332 379 C-332.66 379 -333.32 379 -334 379 C-334 379.99 -334 380.98 -334 382 C-335.98 381.67 -337.96 381.34 -340 381 C-340 381.66 -340 382.32 -340 383 C-341.98 383.33 -343.96 383.66 -346 384 C-346 382.35 -346 380.7 -346 379 C-347.65 378.34 -349.3 377.68 -351 377 C-350.690625 376.360625 -350.38125 375.72125 -350.0625 375.0625 C-348.92892597 371.79513957 -348.60572 368.90068685 -348.2734375 365.48046875 C-347.9822471 362.83895579 -347.59098262 360.2413778 -347.125 357.625 C-346.98320312 356.81289063 -346.84140625 356.00078125 -346.6953125 355.1640625 C-345.90171012 352.69408656 -344.88890347 351.72615199 -343 350 C-342.29788106 348.34795544 -341.63028587 346.68076231 -341 345 C-338.40605843 341.10908765 -336.45756796 341.01663831 -332 340 C-331.01 340 -330.02 340 -329 340 C-328.7525 339.071875 -328.505 338.14375 -328.25 337.1875 C-325.17194264 332.82691873 -322.31631559 332.51632456 -317.23046875 331.45703125 C-312.78523256 330.82814052 -308.47632019 330.73260919 -304 331 C-304 329.68 -304 328.36 -304 327 C-302.02 326.34 -300.04 325.68 -298 325 C-298.350625 324.443125 -298.70125 323.88625 -299.0625 323.3125 C-300.22672585 320.44074289 -299.8706847 318.92866672 -299 316 C-298.67 315.67 -298.34 315.34 -298 315 C-301.02111993 313.7330224 -301.02111993 313.7330224 -304.375 314.5625 C-308.10296475 315.01242678 -309.72470772 314.68727178 -313 313 C-312.10055866 307.34636872 -312.10055866 307.34636872 -311.4375 305.0625 C-310.63434828 301.27621333 -310.68311902 297.46557454 -311.5 293.6875 C-312.28255184 289.48128385 -312.074557 285.2663172 -312 281 C-312.721875 280.9175 -313.44375 280.835 -314.1875 280.75 C-317 280 -317 280 -319.25 278.1875 C-321.71024365 276.230488 -323.52467977 275.25093861 -326.375 274.0625 C-330.77713583 272.18956449 -334.31080687 270.06124537 -338 267 C-338 266.01 -338 265.02 -338 264 C-338.8971875 263.6596875 -338.8971875 263.6596875 -339.8125 263.3125 C-342.61183411 261.63289954 -343.58100061 259.90894875 -345 257 C-345 256.01 -345 255.02 -345 254 C-345.99 253.67 -346.98 253.34 -348 253 C-348.93167355 250.0249458 -349.46612112 247.0397142 -350.05859375 243.98046875 C-351.11815715 240.62591739 -352.31543542 239.21903315 -355 237 C-355.66 236.67 -356.32 236.34 -357 236 C-358.29343425 232.04361288 -359.20511442 228.0799437 -360 224 C-357.98601095 224.69224113 -355.97240982 225.38562548 -353.96044922 226.08374023 C-352.16076912 226.70647667 -350.35891426 227.32295603 -348.55517578 227.93383789 C-343.98276424 229.50553067 -339.55077897 231.14935241 -335.19140625 233.24609375 C-322.40498963 239.19344698 -311.02369791 239.7223679 -297.16552734 239.23217773 C-295.76660756 239.18325923 -294.36768185 239.13450967 -292.96875 239.0859375 C-292.29262665 239.06072021 -291.6165033 239.03550293 -290.91989136 239.00952148 C-285.32151577 238.86283693 -280.09933743 239.59358336 -274.62988281 240.72631836 C-270.36443606 241.17020676 -268.49484278 239.35229803 -265 237 C-259.77388683 235.61465007 -255.21730212 235.81597196 -250.1171875 237.52734375 C-244.29385222 238.82738724 -239.35900408 237.73288992 -233.82421875 235.8125 C-232.8473687 235.47955933 -232.8473687 235.47955933 -231.8507843 235.13989258 C-229.79276407 234.43656532 -227.74008422 233.71901974 -225.6875 233 C-223.61623521 232.28369861 -221.54398176 231.57042471 -219.47065735 230.86010742 C-217.60176585 230.21841794 -215.7357396 229.56840155 -213.86987305 228.91796875 C-211 228 -211 228 -209 228 C-209.66 227.01 -210.32 226.02 -211 225 C-211.01171875 223.0625 -211.01171875 223.0625 -210.6875 221 C-210.58824219 220.319375 -210.48898438 219.63875 -210.38671875 218.9375 C-210 217 -210 217 -209 214 C-209.33 213.401875 -209.66 212.80375 -210 212.1875 C-211.71706179 208.43142734 -210.49551611 205.41374739 -209.17578125 201.6484375 C-207.28248563 196.9339069 -207.28248563 196.9339069 -206 195 C-204.66804714 194.66119257 -203.33471 194.32777751 -202 194 C-200.93420287 192.14507112 -200.93420287 192.14507112 -200 190 C-197.59719021 187.28872138 -195.05424448 184.95697887 -192 183 C-188.5 183.0625 -188.5 183.0625 -186 184 C-186 184.99 -186 185.98 -186 187 C-184.26969709 186.71515154 -182.54079286 186.42180062 -180.8125 186.125 C-179.36810547 185.88136719 -179.36810547 185.88136719 -177.89453125 185.6328125 C-175.08967396 185.01960483 -172.62775253 184.14333657 -170 183 C-171.32 182.67 -172.64 182.34 -174 182 C-174 180.35 -174 178.7 -174 177 C-170.54888911 175.48151121 -167.22424797 174.07059658 -163.625 172.9375 C-160.85679314 172.29017408 -160.85679314 172.29017408 -160 170 C-159.34 170 -158.68 170 -158 170 C-157.67 169.01 -157.34 168.02 -157 167 C-156.09507812 167.01740234 -156.09507812 167.01740234 -155.171875 167.03515625 C-154.37265625 167.04417969 -153.5734375 167.05320313 -152.75 167.0625 C-151.56664062 167.07990234 -151.56664062 167.07990234 -150.359375 167.09765625 C-148.01303676 167.08813869 -148.01303676 167.08813869 -145.875 166.421875 C-144 166 -144 166 -141.25 167.1875 C-140.5075 167.785625 -139.765 168.38375 -139 169 C-139 170.32 -139 171.64 -139 173 C-136.69 172.67 -134.38 172.34 -132 172 C-131.814375 171.0409375 -131.814375 171.0409375 -131.625 170.0625 C-131.41875 169.381875 -131.2125 168.70125 -131 168 C-130.34 167.67 -129.68 167.34 -129 167 C-128.34786708 164.97536745 -128.34786708 164.97536745 -128 163 C-127.34 163 -126.68 163 -126 163 C-125.97292861 160.75006641 -125.95357171 158.50003905 -125.9375 156.25 C-125.92009766 154.37054688 -125.92009766 154.37054688 -125.90234375 152.453125 C-125.97978973 149.71463499 -126.17219185 147.58119707 -127 145 C-126.175 144.443125 -125.35 143.88625 -124.5 143.3125 C-121.73571611 141.28227043 -121.73571611 141.28227043 -121.8125 138.5 C-121.874375 137.675 -121.93625 136.85 -122 136 C-121.67 135.360625 -121.34 134.72125 -121 134.0625 C-119.67109112 131.32162544 -119.93316013 129.00779399 -120 126 C-118.19627043 124.19627043 -115.31769828 124.48518646 -112.875 124.1875 C-107.30451807 123.36110982 -103.46586399 122.4508949 -99 119 C-97.96474868 116.88658874 -97.96474868 116.88658874 -98 115 C-98.99 114.34 -99.98 113.68 -101 113 C-101.1875 109.875 -101.1875 109.875 -101 107 C-101.86625 106.9071875 -101.86625 106.9071875 -102.75 106.8125 C-105.97219753 105.64892867 -107.15672861 103.83073821 -109 101 C-109 99.68 -109 98.36 -109 97 C-108.34 97 -107.68 97 -107 97 C-107 96.01 -107 95.02 -107 94 C-100.25 93.875 -100.25 93.875 -98 95 C-95.90243573 95.28329995 -93.79610718 95.50362372 -91.6875 95.6875 C-90.55699219 95.79449219 -89.42648437 95.90148437 -88.26171875 96.01171875 C-82.69911045 95.99173333 -78.9528232 93.84302256 -75 90 C-73.84525388 87.56189845 -73.84525388 87.56189845 -74 85 C-74.97272675 83.64664105 -75.9739266 82.31337396 -77 81 C-77.1875 78.25 -77.1875 78.25 -77 76 C-75.515 75.505 -75.515 75.505 -74 75 C-73.855625 74.4225 -73.71125 73.845 -73.5625 73.25 C-72.51856967 69.07427868 -69.83776708 66.57845822 -66.375 64.1875 C-64 63 -64 63 -62 63 C-62.11446272 60.43663746 -62.24119501 57.87486555 -62.375 55.3125 C-62.42140625 54.2306543 -62.42140625 54.2306543 -62.46875 53.12695312 C-62.69495388 48.99873234 -63.2555778 45.80727067 -65 42 C-65.12375 41.113125 -65.2475 40.22625 -65.375 39.3125 C-65.76947965 36.82100748 -65.76947965 36.82100748 -68.0625 35.6875 C-68.701875 35.460625 -69.34125 35.23375 -70 35 C-70 34.01 -70 33.02 -70 32 C-70.99 31.67 -71.98 31.34 -73 31 C-72.690625 30.401875 -72.38125 29.80375 -72.0625 29.1875 C-70.89790296 26.91043228 -70.89790296 26.91043228 -70 24 C-69.34 24 -68.68 24 -68 24 C-67.9175 23.443125 -67.835 22.88625 -67.75 22.3125 C-66.77389987 19.30285794 -65.04811186 17.37845248 -63 15 C-60.03 15.66 -57.06 16.32 -54 17 C-53.67 14.69 -53.34 12.38 -53 10 C-51.948125 9.95875 -50.89625 9.9175 -49.8125 9.875 C-44.76216403 8.7159065 -44.00445727 7.08940017 -41 3 C-35.07331025 -0.9511265 -27.07137079 -0.30454327 -20.125 -0.625 C-19.18269531 -0.6765625 -18.24039062 -0.728125 -17.26953125 -0.78125 C-11.37481674 -1.05845649 -5.84747494 -0.80447807 0 0 Z M-213 370 C-213.66 370.66 -214.32 371.32 -215 372 C-213.02 372 -211.04 372 -209 372 C-210.32 371.34 -211.64 370.68 -213 370 Z " fill="#020202" transform="translate(374,17)"/>
</svg>
