<?xml version="1.0" encoding="UTF-8"?>
<svg version="1.1" xmlns="http://www.w3.org/2000/svg" width="500" height="500">
<path d="M0 0 C1.32 0 2.64 0 4 0 C4.4125 0.495 4.825 0.99 5.25 1.5 C7.76567353 3.6562916 9.86059427 3.14666065 13.0625 2.91015625 C15 3 15 3 18 5 C18.51171875 7.1640625 18.51171875 7.1640625 18.6875 9.625 C18.78611328 10.85089844 18.78611328 10.85089844 18.88671875 12.1015625 C18.94279297 13.04128906 18.94279297 13.04128906 19 14 C19.680625 13.773125 20.36125 13.54625 21.0625 13.3125 C25.01494158 12.89202749 27.43907942 14.36843568 31 16 C31.19645093 19.12450532 31.38063489 22.24961445 31.5625 25.375 C31.64661133 26.70917969 31.64661133 26.70917969 31.73242188 28.0703125 C31.78076172 28.92109375 31.82910156 29.771875 31.87890625 30.6484375 C31.9260376 31.43395996 31.97316895 32.21948242 32.02172852 33.02880859 C32 35 32 35 31 37 C30.68744353 39.85207778 30.48962518 42.70496854 30.28125 45.56640625 C30 48 30 48 29 49 C28.83333333 51.5 28.83333333 51.5 29 54 C29.33 54.33 29.66 54.66 30 55 C30.15889043 58.57503472 29.86146203 61.55415188 29 65 C29.33 65.66 29.66 66.32 30 67 C30.07065617 69.04055005 30.08421976 71.08334257 30.0625 73.125 C30.05347656 74.22070312 30.04445313 75.31640625 30.03515625 76.4453125 C30.02355469 77.28835937 30.01195312 78.13140625 30 79 C28.68 79 27.36 79 26 79 C25.855625 79.61875 25.71125 80.2375 25.5625 80.875 C25 83 25 83 24 85 C23.34 85 22.68 85 22 85 C21.87625 85.556875 21.7525 86.11375 21.625 86.6875 C21 89 21 89 20 91.3125 C18.80586008 94.52175102 18.475306 97.61344474 18 101 C16.72697964 106.82406817 13.98432023 109.26687153 9.5 112.8125 C8.90574219 113.30169922 8.31148438 113.79089844 7.69921875 114.29492188 C3.13964025 118.01566144 0.94722555 119.11829816 -4.8828125 119.31640625 C-6.04941406 119.35830078 -7.21601563 119.40019531 -8.41796875 119.44335938 C-9.64128906 119.48267578 -10.86460937 119.52199219 -12.125 119.5625 C-13.35605469 119.60568359 -14.58710938 119.64886719 -15.85546875 119.69335938 C-18.90352853 119.79968704 -21.9516719 119.90171781 -25 120 C-27.1640625 114.46875 -27.1640625 114.46875 -25.6875 110.25 C-25.130625 109.1775 -24.57375 108.105 -24 107 C-22.80481312 104.60962625 -22.89815562 102.97598184 -22.8125 100.3125 C-22.37061779 95.40190582 -20.91818161 92.805889 -17.66796875 89.1796875 C-16 88 -16 88 -12 88 C-11.773125 87.360625 -11.54625 86.72125 -11.3125 86.0625 C-10 84 -10 84 -7.375 83.25 C-6.59125 83.1675 -5.8075 83.085 -5 83 C-4.9175 82.4225 -4.835 81.845 -4.75 81.25 C-3.79468987 78.3840696 -2.21530827 77.0009236 0 75 C-2.54456151 72.03134491 -5.48994665 70.6380249 -9 69 C-9 68.34 -9 67.68 -9 67 C-9.721875 67.495 -10.44375 67.99 -11.1875 68.5 C-14.14848659 70.07919285 -15.71253029 70.28178312 -19 70 C-19.33 68.68 -19.66 67.36 -20 66 C-18.02 66 -16.04 66 -14 66 C-14 63.69 -14 61.38 -14 59 C-14.639375 58.79375 -15.27875 58.5875 -15.9375 58.375 C-18 57 -18 57 -18.75 54.375 C-18.98054901 51.26258834 -18.95651057 48.21916393 -18.90234375 45.1015625 C-19.06601154 41.5794316 -20.0337824 38.38176161 -21 35 C-19.515 34.505 -19.515 34.505 -18 34 C-18 33.34 -18 32.68 -18 32 C-17.34 32 -16.68 32 -16 32 C-16.03480469 31.25234375 -16.06960937 30.5046875 -16.10546875 29.734375 C-16.13253906 28.74953125 -16.15960938 27.7646875 -16.1875 26.75 C-16.23970703 25.28820312 -16.23970703 25.28820312 -16.29296875 23.796875 C-15.95467748 20.56732104 -14.9793298 19.48830032 -13 17 C-12.68786123 15.00580819 -12.68786123 15.00580819 -12.75 13 C-12.53138021 10.39599543 -12.41372519 9.37706599 -10.45703125 7.59375 C-8.01104308 6.18163312 -5.87133946 5 -3 5 C-2.690625 4.360625 -2.38125 3.72125 -2.0625 3.0625 C-1 1 -1 1 0 0 Z " fill="#060606" transform="translate(262,139)"/>
<path d="M0 0 C3.34430737 0.72366315 5.34262343 1.81715496 8 4 C7.25 8.75 7.25 8.75 5 11 C3.68 11 2.36 11 1 11 C1 11.66 1 12.32 1 13 C0.34 13 -0.32 13 -1 13 C-1 13.99 -1 14.98 -1 16 C-1.66 16 -2.32 16 -3 16 C-3 16.66 -3 17.32 -3 18 C-3.639375 18.53625 -4.27875 19.0725 -4.9375 19.625 C-7.38941519 22.44841749 -7.3765726 24.39609271 -7.66796875 28.03515625 C-8.19636974 31.16204679 -9.77195863 32.83561695 -12 35 C-14.68408288 36.70805274 -15.76169533 37 -19 37 C-21.14285714 29.57142857 -21.14285714 29.57142857 -22 26 C-21.01 25.67 -20.02 25.34 -19 25 C-18.566875 23.8553125 -18.566875 23.8553125 -18.125 22.6875 C-16.73094284 19.35725233 -14.85861461 18.1256365 -12 16 C-11.67 15.34 -11.34 14.68 -11 14 C-10.34 14 -9.68 14 -9 14 C-9 13.34 -9 12.68 -9 12 C-8.34 12 -7.68 12 -7 12 C-6.72414062 11.42765625 -6.44828125 10.8553125 -6.1640625 10.265625 C-5.00532152 8.01035733 -3.73124294 5.89143622 -2.375 3.75 C-1.92898437 3.04359375 -1.48296875 2.3371875 -1.0234375 1.609375 C-0.68570313 1.07828125 -0.34796875 0.5471875 0 0 Z " fill="#1E1E1E" transform="translate(201,234)"/>
</svg>
