<?xml version="1.0" encoding="UTF-8"?>
<svg version="1.1" xmlns="http://www.w3.org/2000/svg" width="402" height="512">
<path d="M0 0 C0.66 0 1.32 0 2 0 C3.74880826 3.00795021 5 5.16647924 5 8.6875 C3.6552408 11.79725566 2.02461002 12.59835145 -1 14 C-1.66 14 -2.32 14 -3 14 C-3.33 16.31 -3.66 18.62 -4 21 C-5.32 21.33 -6.64 21.66 -8 22 C-8 17.18359277 -7.03074485 15.6687964 -4 12 C-0.75 10.625 -0.75 10.625 2 10 C1.34 6.7 0.68 3.4 0 0 Z " fill="#010101" transform="translate(308,273)"/>
<path d="M0 0 C1.98 0.66 3.96 1.32 6 2 C7.00821159 4.68856424 7.22736824 6.41703215 6.17578125 9.11328125 C5.16604698 11.10794931 4.11893353 13.0646772 3 15 C2.01 15 1.02 15 0 15 C0.53115106 10.48521602 2.36620292 7.65333143 5 4 C2.525 3.01 2.525 3.01 0 2 C0 1.34 0 0.68 0 0 Z " fill="#020202" transform="translate(236,227)"/>
<path d="M0 0 C2.375 0.3125 2.375 0.3125 5 1 C7.29013653 4.4352048 7.17842973 5.985331 7 10 C5.68 9.67 4.36 9.34 3 9 C3 7.35 3 5.7 3 4 C2.01 4.33 1.02 4.66 0 5 C0 3.35 0 1.7 0 0 Z " fill="#060505" transform="translate(366,357)"/>
<path d="M0 0 C0.66 0 1.32 0 2 0 C5.07692308 5.29230769 5.07692308 5.29230769 4.6875 8.875 C4.460625 9.57625 4.23375 10.2775 4 11 C3.01 11.33 2.02 11.66 1 12 C1.020625 10.948125 1.04125 9.89625 1.0625 8.8125 C1.01103198 5.67295096 0.73482813 3.03116604 0 0 Z " fill="#070707" transform="translate(308,273)"/>
<path d="M0 0 C3.375 0.3125 3.375 0.3125 7 1 C9 4 9 4 9 7 C8.34 7 7.68 7 7 7 C7 6.34 7 5.68 7 5 C5.5459375 4.5978125 5.5459375 4.5978125 4.0625 4.1875 C3.051875 3.795625 2.04125 3.40375 1 3 C0.67 2.01 0.34 1.02 0 0 Z " fill="#000000" transform="translate(26,19)"/>
<path d="M0 0 C0.66 0 1.32 0 2 0 C2 1.65 2 3.3 2 5 C1.34 5 0.68 5 0 5 C0 6.32 0 7.64 0 9 C-1.32 9 -2.64 9 -4 9 C-4 8.01 -4 7.02 -4 6 C-3.34 6 -2.68 6 -2 6 C-1.34 4.02 -0.68 2.04 0 0 Z " fill="#010101" transform="translate(234,230)"/>
<path d="M0 0 C1.98 0.99 1.98 0.99 4 2 C4 3.65 4 5.3 4 7 C2.68 7 1.36 7 0 7 C0 4.69 0 2.38 0 0 Z " fill="#010101" transform="translate(125,160)"/>
<path d="M0 0 C1.32 0.33 2.64 0.66 4 1 C4.33 2.65 4.66 4.3 5 6 C3.0625 5.25 3.0625 5.25 1 4 C0.25 1.875 0.25 1.875 0 0 Z " fill="#010101" transform="translate(262,184)"/>
<path d="M0 0 C0.99 0.33 1.98 0.66 3 1 C2.67 2.32 2.34 3.64 2 5 C1.01 4.67 0.02 4.34 -1 4 C-0.67 2.68 -0.34 1.36 0 0 Z " fill="#070707" transform="translate(50,76)"/>
<path d="M0 0 C1.32 0.33 2.64 0.66 4 1 C4 2.32 4 3.64 4 5 C3.34 5 2.68 5 2 5 C2 4.01 2 3.02 2 2 C1.34 2 0.68 2 0 2 C0 1.34 0 0.68 0 0 Z " fill="#010101" transform="translate(297,285)"/>
<path d="M0 0 C1.32 0 2.64 0 4 0 C3.67 0.99 3.34 1.98 3 3 C2.01 3 1.02 3 0 3 C0 2.01 0 1.02 0 0 Z " fill="#010101" transform="translate(142,61)"/>
<path d="M0 0 C0.66 0 1.32 0 2 0 C2 0.99 2 1.98 2 3 C0.68 3.33 -0.64 3.66 -2 4 C-2 3.34 -2 2.68 -2 2 C-1.34 2 -0.68 2 0 2 C0 1.34 0 0.68 0 0 Z " fill="#000000" transform="translate(298,278)"/>
<path d="M0 0 C1.65 0 3.3 0 5 0 C5 0.66 5 1.32 5 2 C3.35 2 1.7 2 0 2 C0 1.34 0 0.68 0 0 Z " fill="#010101" transform="translate(301,273)"/>
<path d="M0 0 C0.99 0 1.98 0 3 0 C3 0.66 3 1.32 3 2 C2.01 2 1.02 2 0 2 C0 1.34 0 0.68 0 0 Z " fill="#010101" transform="translate(335,489)"/>
<path d="M0 0 C0.66 0 1.32 0 2 0 C2 0.66 2 1.32 2 2 C1.34 2 0.68 2 0 2 C0 1.34 0 0.68 0 0 Z " fill="#030303" transform="translate(300,276)"/>
</svg>
