<?xml version="1.0" standalone="no"?>
<!DOCTYPE svg PUBLIC "-//W3C//DTD SVG 20010904//EN"
 "http://www.w3.org/TR/2001/REC-SVG-20010904/DTD/svg10.dtd">
<svg version="1.0" xmlns="http://www.w3.org/2000/svg"
 width="501.000000pt" height="498.000000pt" viewBox="0 0 501.000000 498.000000"
 preserveAspectRatio="xMidYMid meet">

<g transform="translate(0.000000,498.000000) scale(0.100000,-0.100000)"
fill="#000000" stroke="none">
<path d="M2252 4851 c-56 -45 -64 -48 -104 -44 -42 5 -45 3 -108 -60 l-65 -64
-98 -6 c-55 -3 -101 -7 -103 -9 -2 -3 7 -33 21 -69 24 -61 27 -65 78 -84 48
-19 52 -23 55 -56 2 -27 10 -39 33 -53 32 -19 43 -39 52 -97 5 -34 3 -38 -34
-58 -21 -12 -41 -26 -44 -31 -3 -5 1 -30 10 -55 21 -63 20 -69 -20 -96 -23
-16 -35 -32 -35 -48 0 -22 -3 -23 -37 -16 -98 18 -84 26 -143 -75 -53 -92 -54
-92 -70 -69 l-17 22 -47 -39 c-47 -39 -74 -96 -61 -132 3 -9 26 -39 51 -67 75
-84 79 -73 -56 -165 l-120 -81 -39 22 c-43 24 -33 24 -236 -10 -111 -19 -122
-23 -154 -55 l-34 -35 12 -56 c7 -32 9 -60 4 -64 -95 -80 -114 -92 -135 -86
-13 4 -78 26 -144 50 l-121 44 -87 -18 c-48 -10 -91 -22 -96 -27 -4 -5 -13
-33 -19 -63 -11 -50 -10 -56 9 -76 18 -19 19 -23 6 -28 -9 -4 -16 -11 -16 -18
0 -6 7 -9 15 -5 11 4 15 -1 15 -19 0 -20 18 -36 95 -87 94 -61 110 -83 81
-107 -7 -6 -26 -29 -40 -50 l-27 -38 16 -72 c13 -55 14 -79 6 -103 -6 -17 -11
-35 -11 -39 0 -5 49 -45 109 -89 115 -86 113 -82 157 -215 11 -33 29 -61 54
-82 45 -39 56 -84 28 -110 -26 -24 -23 -38 22 -87 39 -43 40 -44 40 -119 l0
-76 40 -11 c22 -5 58 -15 80 -20 31 -9 46 -7 69 5 17 8 38 15 47 15 9 0 50
-30 90 -66 60 -53 87 -70 139 -85 62 -19 68 -24 137 -107 39 -48 78 -94 85
-103 19 -23 113 -288 113 -320 0 -14 -7 -48 -15 -74 -14 -48 -14 -50 13 -83
72 -89 89 -123 120 -230 29 -96 32 -120 25 -164 -8 -49 -12 -55 -60 -88 -29
-19 -52 -39 -53 -43 0 -13 110 -197 119 -197 4 0 16 9 26 20 23 25 40 25 90
-1 36 -19 45 -20 95 -10 55 12 55 12 114 102 l60 91 -24 45 c-21 39 -22 49
-12 76 11 28 9 35 -13 67 -20 29 -25 48 -25 100 0 57 5 73 51 159 29 53 52 97
53 98 0 0 48 11 106 22 58 12 115 24 126 26 12 3 39 29 61 58 l40 53 129 39
c123 38 132 43 229 118 134 105 130 104 196 73 49 -24 59 -34 108 -118 42 -70
57 -107 66 -157 l10 -66 61 -3 c54 -3 65 0 93 24 26 21 39 25 66 21 19 -3 35
-4 35 -2 0 3 -11 29 -25 59 l-25 55 41 110 c38 99 47 115 105 172 l63 62 68
-17 c37 -9 71 -16 75 -16 4 0 0 18 -9 41 -14 37 -14 44 0 73 l15 33 73 -13
c76 -13 99 -29 99 -68 0 -44 12 -46 93 -14 42 16 77 34 77 40 0 6 -10 46 -22
90 -21 78 -22 80 -71 105 l-49 25 7 61 c3 34 8 64 11 66 2 2 52 12 111 23 58
10 107 19 108 21 1 1 16 28 34 60 l33 58 -26 58 c-14 32 -26 65 -26 74 0 8 35
58 78 111 53 66 86 98 104 102 l27 6 -19 39 -20 39 62 31 c35 17 64 32 65 33
1 1 -5 31 -13 66 -16 68 -13 90 10 90 8 0 17 13 20 30 3 17 9 44 12 60 3 17 9
30 12 30 4 0 22 9 40 20 34 21 34 21 16 48 -9 14 -26 42 -36 62 -11 19 -27 45
-36 57 -19 24 -8 25 -173 -18 -27 -7 -40 -17 -49 -39 -15 -36 -24 -32 -49 25
-17 38 -24 45 -58 50 -94 16 -89 12 -85 53 4 36 2 39 -37 57 -41 18 -41 18
-65 -4 l-23 -22 -77 42 c-74 39 -78 40 -91 23 -13 -18 -14 -18 -37 2 -21 20
-28 21 -86 12 -34 -6 -65 -8 -68 -6 -3 3 11 68 30 144 50 199 67 275 61 283
-2 4 -39 6 -83 3 l-78 -4 -44 52 -43 52 -76 -4 -76 -3 -42 80 c-41 76 -43 83
-37 142 5 48 1 75 -16 127 -21 65 -22 66 -58 66 -28 0 -41 -7 -63 -32 -15 -18
-29 -31 -32 -28 -2 3 -22 88 -43 190 l-39 185 -35 -3 c-31 -2 -38 3 -63 39
l-29 42 -47 -47 c-26 -25 -51 -46 -55 -46 -5 0 -32 19 -60 43 -71 60 -70 60
-120 36 l-45 -21 -93 66 c-51 37 -111 71 -133 77 -76 20 -91 38 -50 57 21 10
24 15 15 31 -17 33 -12 38 40 33 28 -2 50 -2 50 2 0 22 -87 160 -114 180 -83
62 -76 62 -144 7z"/>
</g>
</svg>
